<?xml version="1.0" standalone="no"?>
<!DOCTYPE svg PUBLIC "-//W3C//DTD SVG 20010904//EN"
 "http://www.w3.org/TR/2001/REC-SVG-20010904/DTD/svg10.dtd">
<svg version="1.0" xmlns="http://www.w3.org/2000/svg"
 width="1093.000000pt" height="843.000000pt" viewBox="0 0 1093.000000 843.000000"
 preserveAspectRatio="xMidYMid meet">

<g transform="translate(0.000000,843.000000) scale(0.100000,-0.100000)"
fill="#000000" stroke="none">
<path d="M0 6696 l0 -1734 31 -6 c17 -3 78 -6 134 -6 120 0 118 2 110 -99 -3
-36 -9 -165 -15 -286 -32 -702 -48 -1025 -55 -1120 -3 -38 -10 -167 -15 -285
-20 -432 -29 -570 -40 -570 -4 0 -13 7 -20 15 -8 10 -31 15 -71 15 l-59 0 0
-214 c0 -118 4 -217 8 -220 5 -3 102 -8 217 -11 208 -6 274 -15 201 -29 -20
-4 -40 -5 -44 -3 -4 3 -91 8 -194 12 l-188 7 0 -1081 0 -1081 808 0 808 0 135
89 c75 49 209 130 300 181 90 51 181 107 201 125 21 17 80 53 131 79 52 26
146 81 208 122 62 40 140 84 174 98 109 44 260 85 317 87 56 2 57 3 72 39 42
106 268 219 626 312 129 33 180 41 300 48 96 5 182 17 255 34 60 14 161 32
225 41 63 8 165 22 225 30 220 30 312 38 401 36 51 -2 94 2 98 7 3 5 18 8 33
6 16 -2 73 -6 128 -7 55 -2 121 -7 147 -12 47 -7 49 -6 113 43 36 28 80 54 97
57 17 4 42 20 55 35 29 35 81 53 134 48 34 -3 39 -1 39 17 -1 25 -25 70 -39
71 -6 1 -14 2 -18 3 -5 0 -8 28 -8 62 0 52 2 59 17 56 14 -4 21 7 33 51 33
118 41 135 60 146 11 6 26 18 33 26 11 13 12 12 8 -5 -3 -11 -8 -42 -11 -70
-4 -27 -9 -58 -12 -67 -3 -12 1 -18 12 -18 9 0 13 -5 10 -11 -4 -6 -13 -8 -20
-5 -7 2 -16 -2 -19 -10 -12 -31 -6 -37 14 -16 12 13 33 22 49 22 16 0 34 7 42
16 21 25 80 51 142 63 31 6 67 16 79 22 25 14 178 20 178 8 0 -4 14 -3 31 3
21 7 29 15 25 27 -4 10 1 8 13 -6 10 -12 20 -20 22 -18 2 2 33 6 69 10 36 3
73 8 83 11 12 4 17 0 17 -16 0 -30 28 -80 45 -80 8 0 15 -8 15 -17 0 -14 2
-15 9 -5 6 10 10 9 14 -7 3 -12 13 -24 24 -29 74 -31 118 -87 92 -118 -9 -11
-9 -20 -1 -39 18 -37 30 -68 37 -90 6 -22 92 -93 143 -119 38 -20 38 -20 17
85 -8 41 -19 102 -23 137 -8 58 -7 64 14 86 13 12 40 28 61 34 76 22 295 -1
352 -37 21 -13 29 -87 30 -276 1 -93 4 -218 7 -277 l6 -107 -109 6 c-106 6
-128 1 -132 -29 -1 -4 -4 -15 -8 -23 -3 -9 -3 -48 -1 -87 7 -98 17 -105 151
-120 87 -10 112 -10 129 1 13 8 18 8 13 1 -14 -22 -115 -49 -115 -30 0 4 -34
10 -75 13 -66 5 -79 9 -96 31 -11 14 -30 26 -42 27 -16 0 -18 2 -7 7 8 4 15
20 15 35 1 26 0 27 -12 11 -12 -17 -13 -16 -13 4 0 13 6 22 15 22 8 0 15 5 15
11 0 6 -10 8 -22 5 -13 -3 -17 -3 -11 0 18 8 16 25 -1 18 -8 -3 -17 -1 -20 5
-4 6 -14 7 -23 4 -11 -4 -14 -3 -9 5 5 8 2 10 -8 6 -19 -7 -18 -2 -22 -84 -2
-36 -4 -72 -5 -80 -1 -8 -1 -24 -1 -34 2 -18 3 -18 20 -3 12 11 36 17 66 17
40 0 52 -5 76 -30 26 -28 33 -30 102 -30 71 0 75 -1 97 -30 12 -17 19 -35 16
-40 -3 -5 8 -19 25 -32 17 -12 34 -36 39 -53 6 -20 7 0 3 57 l-5 87 37 34 37
35 -3 88 c-3 74 -6 89 -22 98 -45 26 -64 59 -65 113 l0 53 82 24 c471 142 845
252 1162 341 209 59 457 130 550 158 170 50 573 156 695 183 35 7 78 18 95 24
16 5 122 34 235 64 113 31 249 68 303 82 l97 27 0 602 0 602 -217 7 c-723 21
-1071 27 -1560 27 l-453 -1 -16 25 c-9 14 -22 24 -28 23 -6 -1 -21 2 -34 6
-17 6 -27 2 -41 -15 -17 -21 -26 -23 -160 -25 -130 -2 -142 -1 -151 17 -6 10
-17 19 -24 19 -24 0 -45 35 -49 80 -2 25 -8 54 -14 65 -5 11 -15 40 -22 65
-41 143 -107 317 -133 348 -8 9 -17 24 -20 32 -3 9 -45 65 -93 125 -49 61 -92
115 -97 122 -5 7 -18 45 -28 86 -18 70 -30 98 -109 233 -72 124 -163 238 -228
284 -23 17 -45 40 -48 53 -14 47 -46 104 -80 141 -24 26 -34 45 -29 55 4 9 9
26 11 39 3 12 10 22 15 22 6 0 8 7 4 15 -3 8 -1 15 4 15 6 0 11 30 11 68 l2
67 12 -70 12 -70 4 112 c2 61 1 109 -2 107 -3 -2 -11 8 -18 22 -6 14 -16 22
-22 18 -7 -4 -7 1 1 16 7 13 8 20 2 16 -7 -4 -12 8 -14 31 -3 34 0 39 27 51
19 7 22 11 8 8 -27 -5 -48 19 -51 59 -1 24 0 26 7 10 7 -17 8 -15 14 11 3 17
3 41 0 53 -6 23 7 27 37 11 13 -7 21 -7 26 2 4 6 3 8 -3 5 -6 -4 -19 0 -29 8
-16 13 -17 16 -4 25 13 8 13 10 -2 10 -15 0 -16 4 -6 25 12 26 28 34 28 13 0
-10 3 -9 9 1 7 10 12 8 25 -10 9 -13 16 -19 16 -13 0 16 -34 44 -53 44 -10 0
-17 8 -17 19 0 11 -5 23 -10 26 -7 4 -8 -3 -4 -22 4 -16 3 -25 -2 -20 -5 5 -9
14 -9 20 -1 7 -7 11 -15 9 -11 -3 -11 0 0 12 7 9 9 16 4 16 -4 0 -3 5 4 12 7
7 12 31 12 54 0 31 -6 48 -25 66 -13 14 -25 39 -27 56 -1 17 -6 29 -10 26 -4
-3 -4 -12 -1 -21 6 -15 5 -16 -9 -3 -9 8 -13 17 -9 20 3 3 6 12 6 20 0 8 10
16 23 18 12 2 22 7 22 12 0 5 -6 7 -14 4 -10 -4 -12 2 -9 20 5 25 5 25 26 5
23 -21 33 -24 42 -9 9 14 38 -17 40 -44 1 -11 5 -20 8 -18 4 1 9 2 12 2 3 0 1
9 -5 20 -9 16 -7 24 6 37 16 16 16 16 10 -5 -4 -12 -2 -30 4 -39 11 -17 11
-17 5 1 -3 11 0 23 6 27 12 7 48 -8 61 -26 4 -6 8 -2 8 8 0 9 5 17 10 17 11 0
9 22 -3 31 -4 3 2 14 13 24 20 18 20 18 14 1 -6 -16 -5 -17 16 -6 15 8 20 8
16 1 -4 -6 -2 -11 4 -11 6 0 8 -4 5 -10 -4 -6 1 -7 11 -3 11 4 13 8 6 11 -7 2
-12 13 -12 23 0 11 5 17 10 14 6 -4 8 -11 5 -16 -9 -13 9 -11 23 3 7 7 12 8
12 4 0 -5 8 -2 18 5 15 13 16 12 4 -3 -8 -10 -19 -16 -25 -15 -7 1 -11 -6 -9
-15 2 -12 -4 -18 -15 -18 -14 -1 -13 -4 7 -15 27 -14 44 -10 20 5 -11 7 -12
10 -2 10 7 0 10 5 7 10 -14 22 7 8 40 -27 24 -27 35 -33 35 -21 0 11 7 16 20
15 11 -1 20 -6 20 -11 0 -5 7 -1 16 10 8 10 12 12 8 4 -5 -12 -4 -12 6 -3 15
14 43 5 33 -11 -4 -6 1 -5 10 3 11 8 17 9 17 3 0 -7 7 -9 17 -5 11 4 14 3 9
-5 -5 -8 -2 -10 8 -6 9 3 13 10 10 15 -3 5 3 6 12 2 13 -5 15 -3 9 8 -5 8 -5
11 1 6 5 -5 9 -14 9 -19 0 -6 5 -13 11 -15 7 -2 11 10 10 34 -1 28 -5 37 -16
35 -8 -2 -11 0 -7 4 11 11 38 14 31 3 -8 -14 1 -11 43 12 21 11 30 14 20 6
-13 -11 -14 -16 -6 -19 9 -3 7 -7 -5 -11 -10 -4 -15 -3 -11 3 3 6 2 10 -2 10
-13 0 -32 -36 -25 -46 4 -5 15 -10 26 -12 13 -2 16 1 10 10 -6 10 -4 10 9 -1
18 -14 17 -16 21 38 1 21 16 42 16 23 0 -6 9 -14 21 -17 23 -8 20 -15 -7 -19
-22 -3 -39 -56 -18 -56 8 0 14 -7 14 -16 0 -13 -5 -12 -30 6 -16 12 -30 17
-30 11 0 -6 5 -11 11 -11 5 0 7 -5 3 -12 -4 -7 -3 -8 4 -4 7 4 12 3 12 -3 0
-5 -6 -11 -12 -14 -7 -2 -9 -8 -5 -13 5 -5 14 -3 20 6 17 21 37 23 37 4 0 -11
5 -14 16 -10 9 3 18 6 20 6 3 0 2 5 -1 10 -3 6 -1 10 4 10 6 0 11 -5 11 -11 0
-5 5 -7 10 -4 6 4 8 10 5 15 -3 4 4 10 14 13 13 3 21 -2 26 -17 6 -18 8 -19
12 -3 2 9 12 17 21 17 13 0 11 5 -8 20 -18 13 -27 15 -32 7 -4 -7 -8 -8 -8 -3
0 5 -7 3 -16 -5 -20 -17 -34 3 -27 40 6 38 16 41 10 4 -3 -18 -1 -36 4 -39 5
-3 9 -2 8 3 -1 4 -1 15 0 23 1 13 2 13 11 0 5 -8 10 -10 10 -3 0 6 9 9 20 6
11 -3 20 -9 20 -14 0 -5 5 -9 11 -9 6 0 8 9 4 20 -4 12 0 26 8 34 12 13 16 12
25 -8 7 -17 7 -27 -1 -35 -8 -8 -5 -11 12 -11 15 0 20 -4 15 -12 -5 -8 0 -7
11 2 16 13 18 13 13 0 -2 -8 -15 -17 -27 -18 -13 -2 -21 0 -18 5 4 6 0 10 -8
10 -11 0 -12 -4 -2 -21 6 -12 10 -25 9 -29 -2 -5 16 -6 39 -2 37 6 41 5 35
-10 -5 -14 -4 -16 7 -7 8 7 17 8 22 4 4 -4 6 0 3 8 -3 8 -11 15 -18 15 -7 0
-15 7 -17 15 -4 13 -3 13 6 0 7 -10 11 -11 11 -2 0 6 5 12 11 12 5 0 8 -4 5
-9 -9 -14 17 -20 38 -8 15 7 18 6 14 -4 -6 -15 9 -32 32 -37 11 -2 10 1 -2 11
-26 20 -23 23 22 23 28 -1 39 -5 35 -13 -2 -7 1 -12 8 -10 7 1 11 -7 10 -18
-2 -18 -1 -18 9 3 6 12 15 22 20 22 4 0 8 5 8 11 0 5 -5 7 -12 3 -7 -4 -8 -3
-4 4 4 7 -3 14 -18 18 -13 3 -27 12 -30 20 -6 15 12 15 30 -1 6 -5 21 -16 32
-24 11 -8 18 -20 15 -29 -5 -12 -2 -12 15 -3 27 14 35 14 26 -1 -4 -7 -3 -8 5
-4 6 4 14 1 17 -8 3 -8 13 -17 21 -20 14 -6 14 -4 2 10 -18 22 -20 42 -4 48 9
3 11 -2 8 -17 -4 -18 -3 -19 6 -7 6 8 11 11 11 7 0 -5 7 -1 16 8 9 9 23 14 31
11 8 -3 12 -2 9 3 -3 5 1 12 10 15 13 5 15 2 11 -14 -5 -20 15 -50 35 -50 6 0
8 9 5 19 -3 12 1 22 10 25 20 8 23 8 23 -5 0 -5 -4 -7 -10 -4 -5 3 -10 2 -10
-3 0 -5 10 -12 23 -16 16 -4 28 1 46 21 14 16 19 29 12 31 -6 2 -11 10 -11 18
0 8 6 11 15 8 8 -3 14 -9 13 -12 -2 -22 3 -32 15 -26 7 5 6 0 -3 -11 -13 -17
-13 -18 1 -13 10 4 16 1 16 -8 0 -12 -4 -12 -24 1 -12 9 -23 12 -23 7 0 -5 12
-14 26 -20 14 -7 22 -17 19 -23 -5 -7 -15 -5 -31 6 -13 8 -24 11 -24 5 0 -5 6
-10 13 -10 8 0 7 -4 -3 -10 -13 -8 -13 -10 1 -10 9 0 20 -7 23 -16 7 -19 27
-8 24 14 -2 9 8 21 20 28 34 17 46 31 27 31 -8 0 -15 -4 -15 -9 0 -4 -4 -8 -8
-8 -5 0 -9 7 -9 15 0 14 11 19 31 16 4 -1 14 3 21 9 10 8 15 8 21 -1 4 -8 3
-9 -4 -5 -7 4 -12 1 -12 -8 0 -19 4 -20 33 -5 22 12 22 12 2 -8 -11 -11 -27
-18 -35 -15 -11 4 -12 2 -4 -7 9 -10 17 -10 32 -2 15 8 23 8 27 0 5 -6 13 -3
22 10 8 12 19 19 24 15 14 -8 0 -26 -14 -18 -7 4 -8 3 -4 -1 14 -16 37 -14 38
3 0 13 2 13 8 -3 5 -11 7 -23 5 -26 -2 -4 9 -9 26 -11 16 -2 27 -2 25 2 -2 3
0 12 6 20 7 12 9 11 9 -5 0 -16 2 -17 9 -5 6 8 8 17 5 21 -2 4 4 13 13 20 12
10 15 10 9 1 -4 -7 -1 -14 8 -18 9 -3 12 -12 9 -21 -4 -10 -2 -14 5 -9 6 3 13
2 16 -3 4 -5 -1 -8 -11 -7 -9 2 -19 10 -22 19 -5 13 -8 12 -17 -8 -9 -19 -9
-25 2 -29 9 -3 11 1 8 12 -5 14 -3 13 10 -2 9 -11 16 -16 16 -11 0 5 7 0 15
-11 9 -11 13 -13 10 -4 -4 11 3 15 22 17 16 1 33 -2 38 -6 15 -11 30 -8 47 10
15 15 15 17 -4 33 -15 13 -17 20 -8 31 6 8 18 11 26 8 17 -6 18 -19 4 -28 -8
-5 -7 -12 1 -22 10 -12 10 -16 -2 -24 -11 -7 -11 -9 4 -9 10 0 16 -4 13 -8 -3
-5 1 -9 9 -9 18 0 19 9 3 26 -11 11 -9 11 10 2 12 -6 22 -17 22 -22 0 -6 6 -9
14 -6 7 3 19 0 26 -6 10 -9 11 -9 6 1 -5 7 -1 12 11 12 12 1 8 5 -12 14 -20 8
-25 14 -15 18 21 8 60 -9 60 -26 0 -7 7 -17 16 -20 9 -3 14 -12 11 -20 -3 -8
2 -16 14 -19 10 -3 17 -1 14 3 -3 5 1 11 7 13 8 4 4 8 -10 13 -18 5 -21 9 -10
16 10 8 9 8 -4 4 -18 -5 -46 29 -34 41 3 4 1 12 -6 20 -9 11 -7 12 7 7 10 -4
20 -1 25 6 9 14 30 5 30 -13 0 -9 -2 -9 -8 -1 -5 9 -11 8 -20 -2 -7 -8 -8 -14
-2 -14 5 0 10 -5 10 -11 0 -5 -5 -7 -10 -4 -5 3 -10 1 -10 -4 0 -12 13 -14 24
-4 11 11 58 15 52 4 -4 -5 -2 -12 3 -16 5 -3 15 3 20 12 9 15 10 14 7 -9 -3
-20 0 -28 9 -28 9 0 12 6 8 18 -5 14 -3 13 10 -3 15 -19 16 -17 14 33 -1 37
-5 49 -12 40 -6 -7 -17 -14 -25 -16 -12 -2 -11 1 2 11 10 8 15 17 12 20 -3 3
2 4 13 3 10 -2 19 -13 21 -27 2 -13 11 -33 19 -44 12 -15 14 -16 10 -3 -4 12
1 21 14 28 11 6 17 15 14 21 -4 5 -1 9 4 9 6 0 11 -7 11 -16 0 -22 32 -13 36
9 3 22 14 36 14 18 0 -7 5 -9 10 -6 6 4 8 10 5 15 -3 5 -1 11 5 15 5 3 10 2
10 -4 0 -5 3 -18 6 -28 4 -13 3 -15 -4 -4 -6 8 -12 10 -16 3 -4 -6 2 -16 11
-21 15 -10 14 -11 -7 -7 -14 2 -34 -2 -45 -10 -18 -13 -17 -16 18 -48 37 -34
48 -35 43 -3 -3 24 -16 34 -16 12 0 -14 -3 -15 -15 -5 -27 22 1 36 33 17 7 -5
12 -3 12 7 0 20 29 20 58 0 12 -8 22 -11 22 -6 0 6 7 13 16 16 13 5 15 1 12
-24 -3 -16 -1 -30 4 -30 5 0 6 -6 3 -12 -4 -7 2 -2 14 12 17 21 22 23 33 11
11 -12 10 -13 -3 -8 -13 4 -15 1 -12 -14 3 -11 9 -22 14 -25 5 -3 8 -2 7 3 -1
4 2 18 6 31 5 16 14 22 29 20 16 -2 23 3 25 20 2 12 8 22 13 22 12 0 11 -10
-4 -41 -13 -23 -12 -25 9 -25 12 0 20 4 18 8 -3 5 -10 5 -16 2 -7 -4 -8 -2 -4
4 9 16 33 4 39 -19 3 -10 1 -17 -4 -13 -5 3 -9 -2 -9 -10 0 -8 5 -18 12 -22 7
-4 8 -3 4 4 -4 8 3 16 18 22 26 9 34 25 17 32 -4 2 0 12 10 22 17 17 19 17 25
2 3 -9 4 -23 0 -31 -3 -8 -4 -17 -3 -18 6 -9 -35 -37 -45 -31 -10 5 -10 4 -1
-6 10 -11 15 -11 28 0 13 11 16 11 13 0 -2 -8 5 -16 15 -18 19 -4 24 27 8 43
-6 6 -1 20 14 37 12 15 25 24 29 21 3 -3 -5 -14 -17 -24 -12 -10 -17 -18 -11
-19 5 0 15 5 20 10 7 7 10 1 8 -18 -1 -22 3 -28 20 -29 19 -2 19 -1 4 8 -10 6
-18 15 -18 21 0 7 5 6 15 -2 8 -6 19 -9 25 -5 5 3 10 0 10 -7 0 -10 2 -10 9 1
5 8 6 21 3 30 -5 14 -4 14 13 1 10 -8 16 -10 13 -5 -4 6 0 18 7 28 8 12 15 14
20 8 3 -6 1 -11 -6 -11 -6 0 -1 -9 12 -20 24 -20 23 -21 -20 -23 -13 -1 -26
-7 -28 -13 -2 -6 10 -9 34 -6 21 2 43 4 50 4 7 1 10 5 7 10 -3 5 -10 6 -15 3
-5 -3 -6 2 -2 11 6 15 8 15 25 -6 l18 -22 0 22 0 23 20 -23 c24 -27 26 -42 5
-34 -9 4 -15 0 -15 -7 0 -11 -3 -11 -10 1 -5 8 -10 11 -10 5 0 -5 5 -17 10
-25 6 -10 10 -11 10 -2 0 6 7 12 15 12 9 0 18 7 21 15 4 8 11 12 18 8 6 -4 2
6 -8 22 -19 30 -19 30 0 14 10 -9 25 -14 32 -12 6 3 12 0 12 -6 0 -7 10 -9 26
-5 19 5 25 4 20 -5 -4 -6 -2 -11 4 -11 6 0 8 -4 5 -10 -3 -5 1 -10 9 -10 9 0
17 -4 17 -10 1 -5 2 -14 3 -20 0 -5 6 -10 11 -9 6 1 9 5 7 11 -1 5 2 7 8 3 6
-3 8 -10 5 -15 -3 -4 2 -10 10 -13 10 -4 12 -1 8 10 -5 11 -3 14 6 9 7 -5 11
-17 8 -27 -3 -10 0 -22 5 -26 6 -3 8 -1 5 4 -4 6 0 16 8 23 8 7 15 9 15 5 0
-5 9 0 20 10 20 18 29 52 11 40 -5 -3 -16 8 -24 25 -9 18 -11 30 -5 30 6 0 8
9 5 19 -3 14 -1 18 9 14 17 -6 18 -15 3 -30 -8 -8 -5 -13 10 -18 12 -3 18 -11
15 -17 -5 -7 -2 -8 5 -4 7 5 10 15 6 23 -4 12 -3 13 8 5 8 -7 17 -9 20 -5 4 3
7 1 7 -5 0 -7 -7 -12 -15 -12 -9 0 -15 -9 -15 -25 0 -14 0 -28 0 -32 0 -5 6
-8 13 -8 6 0 15 -4 18 -8 3 -5 9 -1 12 8 4 9 3 14 -2 11 -5 -3 -8 5 -7 18 1
22 26 26 26 4 0 -5 5 -6 10 -3 5 3 10 11 10 16 0 6 -4 8 -9 4 -5 -3 -12 -1
-16 5 -3 5 1 10 9 10 14 0 15 148 16 1340 l0 1340 -5465 0 -5465 0 0 -1734z
m6618 -155 c3 -8 9 -8 23 -1 15 9 25 4 54 -22 33 -31 36 -37 37 -100 2 -38 6
-68 10 -68 4 0 8 -11 8 -25 0 -14 5 -25 11 -25 6 0 9 -9 6 -20 -4 -14 3 -25
22 -36 28 -17 53 -65 42 -81 -3 -6 -36 -10 -73 -11 -37 -1 -76 -6 -87 -12 -11
-5 -31 -10 -45 -10 -13 0 -31 -7 -40 -15 -8 -8 -20 -15 -26 -15 -6 0 -9 -4 -5
-9 3 -5 1 -12 -4 -15 -15 -9 0 -146 16 -146 9 0 31 32 53 77 23 45 56 63 120
63 51 0 76 -20 61 -48 -6 -12 -15 -22 -19 -23 -4 0 -29 -3 -57 -5 -48 -5 -95
-28 -103 -52 -2 -7 9 -9 35 -5 l38 6 -19 -21 c-19 -22 -19 -22 17 -37 51 -21
109 -19 140 5 14 11 37 20 52 20 20 0 29 -8 41 -36 8 -19 12 -44 9 -55 -4 -10
-8 -31 -11 -46 -11 -62 -36 -120 -68 -155 -37 -40 -79 -57 -99 -39 -10 8 -19
7 -33 -4 -10 -8 -21 -15 -24 -15 -8 0 -27 57 -35 105 -10 62 -15 74 -37 86
-20 11 -20 10 -4 -12 9 -13 16 -29 16 -36 0 -15 -37 -18 -42 -3 -2 6 -21 4
-48 -5 -62 -19 -186 -35 -238 -29 -40 4 -47 1 -85 -36 -23 -21 -51 -45 -61
-53 -13 -9 -16 -19 -10 -28 4 -8 9 -27 10 -44 1 -16 2 -38 3 -47 1 -21 21 -24
21 -4 0 8 16 42 36 76 19 33 42 76 49 94 12 27 19 33 35 29 12 -3 27 -18 36
-34 8 -16 20 -30 27 -30 6 -1 27 -3 45 -5 19 -1 46 -7 60 -12 15 -5 46 -15 70
-23 49 -14 62 -27 29 -27 -132 -4 -227 -11 -250 -21 -16 -6 -41 -11 -56 -11
-16 0 -34 -6 -40 -14 -10 -12 -5 -17 26 -27 21 -7 44 -14 52 -15 8 -2 25 -5
38 -9 14 -3 23 -1 23 6 0 7 9 9 25 5 14 -4 25 -2 25 4 0 15 36 12 50 -4 6 -8
18 -12 26 -9 8 3 14 0 14 -6 0 -6 -11 -11 -25 -11 -14 0 -25 -4 -25 -9 0 -5
14 -7 30 -5 21 4 30 1 30 -8 0 -29 -143 -10 -188 25 -37 29 -5 -49 41 -99 15
-16 27 -32 27 -36 0 -5 8 -8 17 -8 9 0 33 -11 52 -24 20 -14 56 -28 81 -31 25
-4 47 -8 49 -10 2 -2 -9 -15 -23 -28 -29 -27 -93 -42 -112 -26 -7 6 -21 8 -31
5 -39 -12 -90 -14 -133 -5 -52 11 -140 89 -140 124 0 43 -13 63 -57 91 -26 16
-50 29 -54 29 -15 0 -79 63 -80 79 -2 25 -4 30 -13 44 -4 7 -5 30 0 50 9 44 6
80 -9 107 -6 11 -12 29 -14 39 -2 11 -15 40 -29 65 -34 61 -40 129 -20 225 20
95 49 152 95 183 19 13 28 23 20 23 -10 1 -10 3 3 10 9 6 20 29 24 53 8 44 10
52 14 65 1 4 2 10 2 14 -1 3 14 13 33 22 19 10 35 22 35 27 0 6 10 20 23 31
12 11 16 17 10 13 -24 -12 -13 7 21 40 19 17 56 41 82 53 45 19 64 21 209 18
106 -2 160 -7 163 -15z m-1193 -221 c3 -6 -1 -7 -9 -4 -18 7 -21 14 -7 14 6 0
13 -4 16 -10z m-805 -30 c0 -5 -5 -10 -11 -10 -5 0 -7 5 -4 10 3 6 8 10 11 10
2 0 4 -4 4 -10z m254 -6 c3 -8 2 -12 -4 -9 -6 3 -10 10 -10 16 0 14 7 11 14
-7z m197 -31 c0 -15 2 -15 9 2 9 21 9 21 15 -8 2 -11 1 -16 -2 -13 -4 3 -13 0
-21 -7 -11 -8 -14 -8 -9 0 4 6 3 14 -3 18 -13 8 -13 25 0 25 6 0 10 -8 11 -17z
m-541 -9 c0 -2 -7 -4 -15 -4 -8 0 -15 4 -15 10 0 5 7 7 15 4 8 -4 15 -8 15
-10z m79 -25 c10 0 6 -4 -9 -10 l-25 -10 22 -12 c12 -7 21 -15 20 -18 -4 -11
25 -39 34 -33 5 3 6 -2 3 -10 -4 -11 0 -16 10 -16 9 0 19 6 22 14 3 8 13 12
22 9 12 -3 13 -2 4 4 -10 7 -8 13 7 27 18 17 20 17 30 -1 6 -10 11 -14 11 -10
0 4 6 2 14 -5 8 -7 11 -17 8 -22 -3 -5 0 -6 6 -2 7 4 18 4 25 -1 21 -13 37
-12 37 4 0 12 -3 13 -14 4 -10 -8 -16 -9 -21 -1 -3 5 1 10 11 10 13 0 14 3 5
13 -8 10 -7 14 4 14 7 0 13 -3 12 -6 -1 -3 3 -6 8 -6 6 0 9 3 8 8 -2 4 2 7 8
7 6 0 8 -9 3 -22 -4 -13 -8 -30 -9 -38 0 -9 -4 -21 -9 -28 -4 -7 -1 -12 9 -12
11 0 15 8 13 27 -3 25 0 28 26 27 28 -1 28 0 11 12 -10 8 -13 14 -7 14 7 0 12
8 12 17 0 15 1 15 13 -2 15 -19 37 -13 37 10 0 8 5 17 12 21 7 4 8 3 4 -4 -4
-7 -2 -12 4 -12 6 0 15 -10 20 -22 7 -18 9 -19 9 -5 1 18 21 25 21 7 0 -17 18
-11 24 8 3 10 16 18 28 19 13 0 17 -1 11 -4 -7 -3 -13 -12 -13 -21 0 -8 3 -12
7 -9 3 4 17 0 29 -8 17 -11 25 -12 30 -3 5 7 3 8 -6 3 -7 -4 -3 6 10 23 25 34
19 61 -8 40 -14 -10 -15 -10 -5 1 6 7 9 19 7 26 -3 7 2 15 12 19 13 5 15 4 5
-7 -13 -17 0 -31 37 -40 19 -4 21 -3 11 9 -6 7 -15 12 -19 9 -5 -3 -11 -1 -15
5 -12 20 20 9 50 -16 17 -15 24 -23 16 -19 -9 6 -12 4 -7 -3 4 -7 4 -12 -1
-12 -4 0 -9 -11 -9 -25 -1 -14 2 -22 7 -19 5 3 9 14 9 25 0 14 5 19 18 17 13
-3 17 -13 15 -38 -2 -35 -2 -35 8 -7 6 15 15 27 20 27 6 0 8 -4 5 -9 -4 -5 3
-7 14 -4 11 3 20 10 20 15 0 5 -5 6 -12 2 -7 -4 -8 -3 -4 5 4 6 11 9 16 6 5
-3 14 0 22 7 23 22 35 18 35 -10 0 -15 2 -34 4 -42 2 -8 -2 -14 -9 -12 -8 1
-11 -2 -7 -8 5 -8 11 -7 21 1 11 9 18 9 26 1 8 -8 7 -13 -5 -18 -15 -5 -14 -8
4 -23 18 -14 20 -21 11 -38 -6 -11 -8 -24 -4 -28 4 -5 2 -5 -5 -1 -6 3 -16 -1
-21 -10 -9 -15 -10 -15 -17 5 -4 14 -1 31 9 46 9 14 12 25 7 25 -5 0 -14 -13
-21 -30 -10 -25 -10 -34 4 -55 9 -14 12 -25 6 -25 -5 0 -10 -5 -10 -11 0 -5 6
-7 13 -4 6 4 5 1 -3 -7 -20 -18 -23 -38 -6 -38 17 0 28 -27 21 -51 -4 -11 -2
-19 3 -19 5 0 10 -11 10 -24 0 -18 -7 -26 -26 -31 -20 -5 -23 -8 -12 -15 8 -5
17 -7 21 -4 8 5 30 -21 28 -32 -1 -5 1 -17 6 -27 6 -14 -1 -26 -26 -49 -19
-17 -26 -24 -15 -17 24 17 44 20 53 7 3 -7 1 -8 -5 -4 -7 4 -12 1 -12 -6 0 -7
-3 -24 -7 -37 -4 -17 -3 -22 5 -17 7 4 12 2 12 -4 0 -7 -6 -10 -14 -7 -8 3
-22 -3 -32 -14 -13 -15 -14 -19 -3 -19 8 -1 1 -7 -16 -15 -19 -10 -22 -13 -7
-9 27 6 28 1 5 -22 -17 -17 -17 -17 7 -11 24 6 24 5 6 -8 -11 -8 -16 -15 -12
-15 5 0 3 -7 -4 -15 -18 -21 -35 -19 -19 3 8 9 -4 2 -25 -17 -37 -32 -43 -33
-98 -28 -32 3 -58 1 -58 -3 0 -16 70 -22 116 -11 26 7 48 11 49 9 8 -8 -47
-58 -69 -64 -28 -7 -26 -24 3 -24 16 0 17 -5 10 -42 -11 -57 -11 -60 1 -53 6
3 10 0 10 -7 0 -23 20 15 20 40 0 12 4 22 9 22 5 0 12 8 15 18 3 9 3 -8 1 -38
-4 -39 -2 -49 4 -35 9 19 10 18 11 -5 1 -15 4 -19 7 -11 4 10 9 8 19 -10 l13
-24 1 25 c1 18 6 12 19 -25 12 -34 15 -54 8 -63 -7 -9 -6 -11 6 -7 27 11 29
-15 2 -37 -34 -26 -25 -35 12 -11 28 17 28 17 13 -2 -10 -14 -7 -13 13 4 27
24 27 24 43 5 8 -10 12 -13 8 -5 -5 10 -3 12 5 7 9 -6 8 -12 -4 -26 -11 -12
-14 -24 -8 -32 9 -14 43 -21 43 -8 0 4 8 11 17 15 12 4 8 -4 -10 -23 -32 -33
-29 -38 25 -37 21 0 37 -4 37 -10 -3 -25 2 -35 17 -35 8 0 13 -4 10 -8 -5 -8
11 -11 71 -15 17 -1 34 -5 37 -8 4 -4 20 -5 37 -3 17 2 40 -1 51 -7 19 -11 20
-18 16 -120 -6 -116 -5 -113 -80 -201 -13 -15 -34 -43 -48 -63 -14 -19 -59
-61 -100 -92 -154 -116 -211 -189 -253 -323 -32 -101 -81 -190 -108 -197 -14
-4 -18 -11 -14 -24 7 -23 -41 -121 -58 -117 -13 3 -17 -3 -17 -23 0 -8 5 -8
15 1 12 10 15 10 15 -2 0 -8 -5 -19 -11 -25 -6 -6 -7 -22 -3 -38 6 -23 8 -25
16 -11 5 9 14 16 20 16 12 0 284 271 310 309 10 14 18 44 18 67 0 59 39 93
114 101 49 5 64 2 118 -25 35 -17 86 -51 114 -76 l51 -45 -14 77 c-14 71 -13
93 1 161 3 13 2 29 -1 35 -19 30 7 112 39 122 11 3 35 29 54 57 19 29 43 64
55 78 11 14 23 45 26 70 5 34 8 39 14 24 8 -20 8 -20 8 0 2 40 34 -12 47 -77
l13 -63 -1 65 -1 65 44 -2 c33 -1 38 0 19 6 -25 8 -25 8 7 15 26 6 39 3 59
-13 15 -12 37 -21 50 -21 12 0 25 -4 28 -9 10 -16 -43 -95 -80 -121 -19 -14
-47 -34 -60 -45 l-25 -20 73 -1 c40 -1 118 -3 173 -4 91 -4 111 -1 220 32 87
26 148 38 220 42 204 13 265 19 265 28 0 5 5 6 10 3 6 -3 10 -15 10 -26 0 -17
-21 -25 -52 -20 -5 0 -8 -2 -8 -6 0 -5 -24 -9 -53 -10 -178 -7 -262 -14 -300
-24 -23 -6 -43 -11 -44 -10 -2 0 -19 -7 -40 -15 -20 -9 -46 -18 -57 -20 -12
-3 -32 -8 -46 -11 -43 -10 -234 -4 -255 8 -18 11 -112 1 -141 -14 -40 -21 -95
-72 -87 -80 3 -4 2 -7 -4 -7 -6 0 -13 -9 -16 -20 -3 -11 -1 -20 4 -20 5 0 2
-11 -7 -25 -9 -14 -13 -25 -10 -25 4 0 4 -6 -1 -12 -4 -7 -8 -15 -8 -18 -1 -3
-5 -23 -10 -45 -5 -22 -9 -43 -9 -47 -1 -3 -4 -10 -8 -14 -5 -4 -8 -18 -8 -31
0 -13 -4 -31 -9 -41 -19 -39 -31 -94 -47 -229 l-18 -143 -33 -6 c-19 -4 -36
-4 -39 -2 -2 3 7 52 20 109 23 96 35 213 25 248 -5 19 -53 68 -100 103 -59 44
-113 61 -175 56 -71 -6 -92 -26 -104 -102 -11 -69 -40 -110 -116 -170 -30 -22
-49 -43 -44 -44 6 -2 10 -13 10 -23 0 -11 5 -29 10 -40 6 -10 12 -43 13 -73 2
-30 6 -58 9 -62 4 -3 4 -28 1 -56 -4 -31 -1 -58 7 -73 10 -18 10 -31 1 -56 -6
-17 -11 -49 -11 -71 0 -36 2 -38 24 -32 18 4 27 1 36 -15 6 -12 9 -22 8 -23
-2 0 -114 -2 -250 -3 -170 -2 -257 -6 -278 -15 -26 -11 -35 -10 -70 8 -34 16
-48 18 -83 10 -44 -10 -120 -10 -299 -1 -109 6 -137 17 -73 29 29 5 35 11 40
38 4 17 5 54 3 81 l-3 50 -30 -48 c-60 -98 -89 -129 -130 -143 -47 -16 -89
-18 -80 -4 3 6 14 10 23 10 18 0 82 53 82 67 0 5 16 26 36 47 47 50 77 115 61
134 -7 9 -23 12 -42 9 -16 -2 -56 -1 -87 2 -32 4 -64 3 -72 -1 -10 -6 -16 -41
-22 -125 -4 -65 -7 -124 -5 -132 3 -17 -16 -30 -38 -24 -12 3 -16 16 -17 51
-2 64 -13 102 -40 135 -32 38 -30 47 10 47 19 0 36 6 39 13 5 14 18 303 21
461 l1 90 -55 17 c-30 9 -92 30 -138 47 l-83 30 2 -86 c2 -65 7 -94 21 -114
10 -14 18 -33 18 -41 0 -9 10 -17 23 -19 19 -3 22 -9 23 -48 2 -68 2 -68 25
-75 12 -4 18 -12 15 -21 -3 -7 -1 -16 4 -19 6 -4 10 -18 10 -32 0 -23 -3 -25
-29 -20 -16 3 -33 1 -41 -6 -10 -10 -11 -6 -6 18 4 20 0 42 -12 65 -27 52 -46
80 -54 80 -4 0 -7 -39 -6 -87 2 -73 5 -90 22 -107 11 -11 22 -32 24 -46 5 -34
8 -35 29 -11 22 27 34 26 61 -1 16 -18 19 -30 14 -57 -10 -44 -29 -50 -43 -14
-6 16 -13 22 -16 15 -7 -19 46 -155 69 -174 10 -9 20 -27 21 -39 1 -14 11 -26
29 -33 l27 -10 -30 -13 c-35 -15 -81 1 -77 26 1 9 -3 25 -10 36 -32 54 -92
177 -92 189 0 8 -9 24 -20 37 -18 23 -19 23 -20 4 0 -11 -3 -38 -6 -59 -4 -22
0 -56 6 -77 11 -32 10 -43 -4 -72 -9 -19 -16 -42 -16 -50 0 -8 -7 -20 -15 -27
-12 -10 -16 -9 -20 2 -3 8 -5 20 -3 25 5 16 -48 60 -79 67 -24 6 -33 2 -53
-26 -14 -18 -24 -36 -23 -40 4 -13 -48 -47 -63 -41 -20 7 -18 20 6 33 11 6 20
21 20 34 0 13 8 34 19 47 10 13 28 44 41 68 l22 44 -23 18 c-21 16 -25 16 -35
4 -14 -19 -25 -19 -60 -1 -15 8 -31 13 -36 10 -14 -9 -10 -104 5 -104 7 0 8
-3 2 -8 -18 -13 -16 -33 7 -52 25 -20 26 -18 -26 -34 -8 -3 -16 -15 -18 -28
-2 -15 -10 -23 -23 -23 -19 0 -20 6 -17 86 3 92 -8 139 -34 139 -13 0 -15 6
-11 30 4 16 0 44 -8 64 -22 51 -19 95 7 115 27 23 19 43 -26 65 -41 19 -57 44
-49 74 4 16 1 22 -10 22 -13 0 -15 -12 -13 -70 2 -38 9 -76 16 -85 9 -11 11
-35 7 -78 -7 -84 4 -144 46 -262 32 -87 35 -102 22 -114 -13 -13 -17 -12 -35
4 -11 10 -20 26 -20 35 0 9 -4 20 -8 26 -5 5 -19 38 -32 74 -30 85 -46 111
-65 104 -18 -7 -20 17 -4 33 14 14 2 34 -18 31 -27 -5 -39 27 -25 66 11 30 11
43 -2 81 -9 25 -16 63 -16 83 0 38 25 86 40 77 13 -8 20 22 20 87 0 56 1 59
23 56 12 -2 26 -13 32 -25 11 -25 46 -38 56 -21 9 14 1 37 -20 62 -10 12 -16
36 -15 70 0 61 34 236 46 236 11 0 10 32 -2 50 -8 13 -11 12 -24 -5 -12 -17
-17 -18 -37 -7 -13 6 -33 11 -44 9 -24 -3 -32 28 -9 37 9 3 22 1 30 -5 8 -7
19 -7 30 -1 14 8 8 15 -41 47 -44 28 -60 33 -66 24 -13 -21 1 -190 18 -226 8
-19 23 -33 33 -33 14 0 17 -9 15 -62 0 -35 -4 -64 -8 -65 -24 -9 -40 2 -57 41
-10 25 -27 47 -39 51 -12 3 -28 19 -36 35 -8 16 -24 31 -35 35 -22 7 -27 44
-8 63 9 9 8 16 -5 29 -12 15 -14 29 -9 67 4 27 13 51 20 54 6 2 12 -3 12 -12
0 -18 16 -29 31 -20 8 4 8 9 0 17 -6 6 -11 24 -11 40 0 47 -35 83 -145 148
-57 34 -102 66 -99 71 11 17 52 7 104 -27 30 -19 63 -38 73 -41 27 -9 47 23
36 58 -6 23 -4 31 12 41 26 16 24 43 -7 72 -23 22 -26 30 -19 62 11 56 9 79
-9 117 -9 19 -14 40 -11 48 7 18 -10 42 -24 34 -6 -4 -11 -23 -11 -42 0 -20
-9 -47 -22 -65 -20 -26 -21 -33 -10 -61 18 -48 -11 -64 -70 -40 -23 10 -28 18
-28 46 0 19 5 38 10 41 15 9 12 46 -6 80 -9 17 -17 46 -18 65 -1 45 -30 50
-32 5 -1 -16 -11 -48 -22 -69 -17 -32 -20 -50 -15 -96 5 -55 5 -57 -21 -64
-20 -5 -26 -13 -26 -33 0 -14 6 -34 14 -42 7 -9 16 -31 19 -49 6 -28 2 -37
-20 -58 -33 -30 -48 -26 -47 12 13 370 13 474 -2 488 -14 14 -18 14 -41 -1
-15 -10 -44 -17 -74 -16 -38 1 -52 -4 -59 -17 -19 -35 -10 -450 9 -450 3 0 17
8 30 17 23 16 24 16 19 -5 -5 -19 -2 -22 27 -22 58 0 64 -15 59 -143 -2 -61
-6 -135 -8 -164 -4 -45 -2 -53 15 -58 18 -6 24 -19 31 -70 2 -14 12 -21 36
-23 28 -3 32 0 32 20 0 30 17 48 46 48 54 0 70 25 33 48 -19 12 -21 20 -16 65
8 62 28 87 52 67 12 -10 15 -24 12 -47 -7 -39 15 -58 45 -39 16 9 22 7 34 -9
47 -64 16 -127 -37 -74 -15 15 -24 18 -32 10 -8 -8 -8 -14 1 -23 7 -7 12 -29
12 -50 0 -32 3 -38 21 -38 47 0 59 -17 59 -83 0 -50 4 -66 20 -80 27 -23 25
-53 -5 -73 -29 -19 -35 -71 -10 -80 23 -9 20 -86 -5 -109 -11 -10 -20 -26 -20
-36 0 -22 21 -71 34 -81 13 -9 -5 -64 -19 -60 -6 2 -9 16 -7 33 2 27 0 29 -22
23 -30 -7 -31 -4 -50 141 -7 55 -20 111 -29 125 -10 16 -18 56 -21 117 -7 121
-13 141 -48 159 -16 9 -32 13 -34 11 -7 -6 -3 -404 5 -510 0 -10 12 -22 25
-27 13 -5 26 -13 29 -17 3 -5 2 -87 -3 -183 -5 -96 -12 -250 -15 -342 -5 -108
-12 -173 -20 -184 -14 -19 -69 -22 -90 -4 -10 9 -19 8 -35 0 -17 -9 -26 -8
-45 4 -15 10 -26 12 -30 6 -17 -27 -65 2 -65 39 0 16 60 23 113 13 36 -7 47
-6 47 3 0 18 -24 25 -88 25 -86 0 -196 19 -208 34 -5 8 -36 23 -67 34 -32 10
-59 21 -62 24 -3 2 0 105 5 227 5 122 13 300 16 394 4 95 10 179 15 188 8 15
10 43 10 104 0 17 0 45 0 63 0 17 -6 42 -12 54 l-12 22 -8 -23 c-5 -12 -6 -33
-3 -45 8 -32 -20 -57 -54 -51 -32 5 -58 -8 -47 -25 5 -8 21 -10 46 -7 35 5 40
3 45 -20 7 -27 -23 -750 -34 -822 -16 -99 -61 -36 -65 88 -1 44 -5 83 -9 87
-4 4 -25 10 -45 13 l-38 6 -1 225 c0 124 4 235 8 248 4 13 4 31 -1 40 -19 34
5 52 69 52 101 0 85 26 -20 32 l-45 3 -7 60 c-17 147 -26 194 -53 281 -10 31
18 37 50 12 26 -20 28 -20 62 -4 52 25 27 40 -60 37 -63 -1 -89 13 -85 46 3
28 17 38 59 47 l26 6 7 137 c4 76 9 174 11 218 3 44 7 130 10 190 3 61 8 155
11 211 7 110 -1 140 -38 146 -22 3 -23 8 -26 92 -2 50 -8 96 -13 102 -16 20
-72 24 -384 28 -159 2 -291 5 -293 5 -2 1 0 5 3 11 4 6 -2 7 -18 1 -14 -5 -98
-10 -188 -10 -237 0 -243 -1 -256 -9 -14 -9 -19 -89 -28 -397 -3 -110 -13
-353 -20 -540 -8 -187 -17 -405 -20 -485 -11 -302 -17 -369 -30 -380 -15 -13
-110 -40 -139 -40 -18 0 -19 7 -12 158 4 86 10 182 13 212 4 30 6 64 6 75 0
11 8 182 18 380 10 198 21 421 25 495 3 74 10 180 13 235 4 55 7 143 7 195
l-1 94 -70 27 c-38 15 -71 34 -73 42 -2 9 -10 18 -19 21 -11 5 -14 2 -9 -10 5
-13 4 -14 -7 -6 -8 7 -18 8 -22 4 -5 -4 -5 -1 -1 6 4 6 3 12 -1 12 -5 0 -15
-6 -22 -12 -11 -11 -13 -10 -9 2 3 9 0 24 -8 35 -9 11 -14 14 -14 6 0 -11 -3
-11 -15 -1 -8 7 -15 9 -15 5 0 -4 -7 -2 -15 5 -8 7 -13 16 -10 20 3 5 -1 11
-7 13 -7 3 -3 6 10 6 12 1 22 6 22 12 0 5 -4 8 -9 4 -5 -3 -13 0 -17 6 -8 14
22 9 72 -12 18 -7 39 -9 50 -4 14 5 15 9 5 12 -11 5 -11 7 0 14 7 4 10 11 7
14 -4 4 -13 3 -20 -1 -19 -12 -48 -15 -48 -5 0 5 8 8 17 7 10 -2 24 4 32 12
10 10 16 11 19 3 2 -6 8 -9 13 -5 5 3 9 -2 9 -10 0 -9 -5 -16 -11 -16 -5 0 -7
-5 -3 -11 3 -6 0 -16 -7 -21 -11 -8 -11 -9 3 -5 9 3 24 -3 33 -13 21 -23 41
-16 48 15 4 25 -23 61 -36 48 -4 -3 -7 -2 -7 3 0 5 18 21 39 36 30 21 41 25
51 15 8 -7 10 -7 7 -1 -8 13 40 6 49 -7 9 -16 -7 -32 -19 -20 -14 14 -37 14
-37 0 0 -6 6 -9 13 -6 7 3 13 -3 13 -13 0 -10 -3 -17 -7 -14 -4 2 -10 -2 -13
-8 -4 -9 -5 -8 -4 2 2 27 -14 50 -36 50 -17 0 -18 -2 -6 -10 14 -9 7 -15 -14
-11 -5 1 -4 -5 3 -13 7 -8 19 -12 27 -9 17 6 18 -8 2 -27 -11 -12 -10 -12 2
-3 10 8 21 9 30 3 18 -11 50 -13 35 -2 -5 4 -10 17 -11 28 0 18 5 21 33 19 28
-2 33 1 28 17 -4 10 -2 18 4 18 9 0 17 -45 12 -72 -2 -15 8 -8 20 13 9 17 8
23 -2 30 -12 7 81 15 113 10 8 -1 10 10 10 49 0 30 -1 32 -15 18 -8 -7 -13
-23 -11 -35 2 -19 -2 -23 -27 -23 -16 0 -29 5 -29 11 0 5 4 8 9 5 12 -8 41 4
41 16 0 6 -6 5 -15 -2 -25 -21 -17 -3 11 25 24 24 27 25 44 10 9 -9 16 -26 14
-40 -1 -14 2 -25 7 -25 8 0 13 15 10 33 0 4 6 7 14 7 8 0 15 -4 15 -10 0 -5
-5 -10 -11 -10 -8 0 -9 -11 -5 -32 l6 -32 -25 24 c-14 13 -25 20 -25 17 0 -4
0 -10 0 -14 0 -5 5 -9 10 -9 23 -3 24 -6 5 -15 -19 -9 -18 -9 3 -5 12 2 22 0
22 -5 0 -5 5 -9 11 -9 5 0 7 5 4 10 -3 6 -1 11 4 11 6 1 16 3 21 4 6 1 15 3
21 4 5 0 7 6 3 12 -5 8 -9 8 -14 -1 -5 -8 -10 -2 -14 17 -4 15 -9 37 -13 48
-4 15 -2 17 7 9 6 -6 13 -20 14 -30 3 -20 36 -33 36 -14 0 6 -4 9 -9 6 -5 -3
-11 1 -15 9 -4 11 2 15 24 16 17 1 35 3 40 4 6 1 13 3 18 4 4 2 -2 6 -13 10
-11 5 -23 4 -26 -1 -4 -6 -7 2 -7 16 1 27 21 36 34 14 5 -7 3 -8 -6 -3 -9 6
-11 4 -6 -4 5 -7 15 -10 23 -7 8 3 11 2 8 -4 -3 -5 4 -8 15 -7 11 1 20 4 20 8
0 12 -27 29 -34 22 -4 -4 -4 1 0 12 5 11 9 14 12 7 2 -7 9 -9 14 -6 6 4 8 3 5
-3 -3 -5 8 -17 26 -27 24 -13 27 -13 13 -2 -11 9 -21 23 -22 32 -2 12 1 13 12
3 8 -6 14 -8 14 -3 0 5 5 2 10 -6 6 -10 10 -11 10 -2 0 6 7 12 15 12 7 0 19 8
24 18 12 19 14 12 5 -12 -3 -9 -12 -16 -19 -16 -7 0 -12 -11 -13 -24 0 -24
-25 -60 -34 -51 -3 3 -15 -7 -29 -21 -24 -26 -24 -26 -1 -15 12 6 22 17 23 24
0 8 2 8 6 -1 4 -10 9 -9 20 5 8 10 12 13 9 6 -4 -6 -1 -15 5 -19 8 -4 9 -3 5
4 -4 7 -2 12 4 12 6 0 9 4 6 9 -3 5 1 14 9 21 8 7 15 18 15 24 0 6 -7 2 -15
-8 -8 -11 -15 -15 -15 -10 0 6 14 23 32 40 17 16 28 23 24 17 -4 -8 -2 -13 5
-13 7 0 21 -8 32 -17 11 -10 17 -13 14 -6 -4 6 0 16 9 21 11 6 13 12 6 16 -6
4 -9 13 -5 22 3 8 -5 27 -18 42 -13 15 -20 24 -15 20 5 -4 15 -3 23 4 10 8 17
8 26 -1 9 -10 8 -11 -4 -6 -24 9 -33 -12 -11 -24 11 -6 22 -7 26 -4 3 3 6 1 6
-5 0 -6 7 -9 17 -5 11 4 14 3 9 -6 -5 -7 -13 -10 -20 -8 -6 3 -17 -2 -25 -10
-12 -13 -11 -14 8 -8 23 7 28 -4 9 -24 -11 -11 -10 -14 0 -18 6 -3 10 -9 6
-14 -3 -5 0 -9 5 -9 6 0 11 7 11 16 0 9 5 12 12 8 7 -4 8 -3 4 4 -4 6 -14 8
-24 5 -9 -3 -14 -3 -10 1 3 4 13 8 21 10 8 1 21 7 28 12 22 18 62 24 76 12 13
-10 18 1 14 26 -1 5 5 4 13 -4 9 -7 16 -15 16 -18 0 -3 -3 -2 -7 1 -3 4 -11 0
-17 -8 -6 -8 -21 -16 -33 -18 -34 -5 -34 -10 2 -33 30 -20 32 -20 28 -3 -3 10
-12 20 -22 22 -11 3 -9 5 6 6 12 0 25 6 28 11 3 6 11 10 17 10 7 0 6 -6 -2
-15 -7 -8 -10 -16 -6 -16 6 -1 18 -5 34 -8 4 -2 -2 -6 -13 -11 -19 -8 -19 -9
3 -9 19 -1 22 3 17 19 -8 25 3 26 21 3 12 -16 13 -15 4 10 -5 15 -6 27 -1 27
5 0 14 12 19 28 10 25 10 25 11 4 1 -13 5 -21 9 -18 4 2 8 -4 9 -14 1 -11 -3
-23 -9 -26 -7 -5 -9 -1 -5 9 3 10 2 17 -2 17 -12 0 -21 -25 -13 -37 10 -15 38
-12 40 4 1 7 3 20 4 28 1 8 4 13 6 10 3 -3 12 1 20 8 13 9 14 9 8 0 -12 -21 5
-14 25 10 12 14 18 17 19 8 0 -11 4 -10 19 3 12 11 17 25 13 38 -4 16 -2 19 9
12 16 -10 20 -11 49 -13 11 0 20 -6 20 -12 0 -6 -9 -8 -20 -4 -11 4 -20 2 -20
-4 0 -6 5 -11 11 -11 5 0 7 -4 4 -10 -6 -9 8 -14 20 -7 2 1 11 -7 20 -18 9
-11 14 -15 11 -8 -4 6 -1 15 6 19 7 4 10 4 6 -1 -4 -4 -2 -15 5 -23 6 -9 8
-13 2 -10 -5 3 -19 2 -30 -3 -16 -6 -14 -8 14 -8 27 -1 32 2 27 15 -8 22 3 61
13 45 9 -14 41 -4 41 14 0 7 7 18 15 25 9 8 15 8 15 2 0 -6 -4 -12 -9 -14 -5
-1 -12 -16 -16 -33 -4 -20 -3 -26 3 -17 8 11 10 11 15 0 3 -8 -1 -15 -9 -16
-8 -1 -21 -3 -29 -4 -20 -2 -19 -5 5 -18 11 -6 19 -7 18 -3 -2 4 2 8 7 8 6 0
9 -3 8 -6 -1 -3 4 -6 10 -6 15 0 17 59 2 69 -6 5 -5 8 3 8 7 0 11 4 7 9 -3 5
4 13 16 16 15 5 25 1 37 -17 10 -12 17 -30 18 -38 3 -43 5 -50 12 -50 5 0 8
10 8 22 -1 17 5 23 23 23 15 0 25 6 27 18 1 9 -1 15 -6 12 -4 -3 -11 2 -14 11
-6 15 -4 15 19 0 22 -15 29 -15 43 -4 15 12 16 11 3 -4 -13 -17 -10 -20 17
-17 4 0 6 7 4 15 -4 22 8 17 19 -8 9 -22 9 -22 6 3 -3 19 1 25 15 24 9 -1 21
-5 25 -10 5 -4 2 -4 -6 0 -11 6 -13 4 -8 -8 3 -10 3 -17 -2 -17 -4 0 -8 -7 -8
-15 0 -23 12 -18 25 10 7 16 17 23 27 19 20 -8 19 -21 -2 -33 -17 -10 -17 -10
0 -11 9 0 17 5 17 11 0 5 4 8 9 5 5 -3 11 1 14 8 3 8 3 17 -1 19 -4 2 0 2 8 0
10 -2 8 2 -4 12 -16 12 -22 12 -27 3 -7 -10 -11 -10 -21 0 -7 8 -8 13 -3 12
22 -5 27 1 15 15 -7 9 -8 15 -2 15 5 0 12 -7 16 -15 6 -16 31 -21 39 -7 2 4 3
2 1 -5 -1 -6 6 -13 17 -16 26 -7 24 -27 -2 -24 -14 1 -23 -4 -24 -16 -2 -9 1
-15 5 -12 5 3 11 -3 13 -12 3 -13 5 -11 6 6 0 13 4 22 7 18 3 -3 14 3 25 14
11 11 25 17 31 13 6 -4 8 -3 5 3 -4 6 0 14 9 17 8 3 13 10 10 15 -3 5 3 11 14
14 13 3 18 1 13 -5 -3 -7 -1 -8 5 -4 6 4 9 13 6 20 -3 8 -1 17 5 21 6 3 11 -1
11 -10 0 -9 5 -13 10 -10 6 3 10 1 10 -4 0 -6 -4 -11 -10 -11 -5 0 -19 -10
-30 -22 -20 -21 -21 -21 -15 -3 5 16 5 17 -3 5 -14 -19 -8 -27 28 -32 20 -3
30 0 30 9 0 7 -8 13 -17 13 -23 0 -4 19 25 25 23 4 30 -9 11 -21 -8 -4 -7 -9
2 -15 10 -6 11 -9 2 -9 -7 0 -12 -10 -12 -22 1 -17 3 -18 6 -6 2 10 10 15 19
11 9 -3 12 0 9 9 -3 8 6 18 25 25 20 7 30 18 30 32 0 15 4 19 17 14 12 -5 14
-3 8 7 -6 10 -4 12 10 6 11 -4 21 -2 26 5 11 19 51 -24 43 -47 -5 -15 -3 -15
10 4 10 12 24 22 32 22 8 0 13 4 10 8 -3 5 1 9 9 9 8 0 12 -8 10 -20 -3 -15
-1 -16 9 -7 11 8 15 8 18 -1 2 -7 12 -9 27 -4 26 8 23 14 -9 20 -12 2 -29 14
-37 25 -8 11 -18 18 -23 15 -5 -3 -11 -2 -14 3 -2 4 4 8 14 9 10 1 21 -4 23
-11 4 -9 15 -12 33 -8 23 4 26 2 21 -13 -5 -13 -3 -16 8 -11 13 5 19 -5 16
-26 0 -4 5 -5 13 -2 19 7 26 39 12 55 -6 8 -1 5 11 -4 12 -11 23 -14 27 -8 4
5 2 12 -4 16 -6 4 -8 11 -4 16 3 6 12 2 21 -10 8 -12 20 -21 26 -20 9 0 8 2
-1 6 -6 2 -9 10 -6 15 5 7 2 8 -6 3 -9 -5 -11 -4 -6 4 4 6 12 9 17 6 5 -4 9 0
10 7 0 10 2 10 6 -1 5 -11 7 -11 14 0 5 9 11 10 16 4 5 -6 6 -9 4 -8 -2 2 -10
-2 -17 -8 -10 -8 -11 -16 -3 -30 13 -26 28 -24 22 2 -5 16 -2 20 13 18 10 -2
24 0 30 3 6 4 11 1 11 -7 0 -8 -6 -15 -12 -15 -18 0 -38 -27 -27 -34 6 -3 12
1 16 9 3 8 10 15 17 15 6 0 8 -7 5 -16 -5 -12 -1 -14 16 -8 20 6 21 5 9 -10
-8 -9 -9 -16 -3 -16 20 0 26 43 8 56 -16 11 -16 13 3 19 12 3 19 10 16 15 -3
4 4 6 15 3 11 -3 26 0 34 6 10 8 16 9 21 1 3 -6 11 -7 17 -4 7 4 8 2 4 -5 -4
-6 -11 -9 -16 -6 -5 3 -11 1 -14 -3 -3 -5 -17 -7 -31 -4 -14 2 -25 0 -25 -6 0
-11 38 -10 57 1 6 4 14 3 18 -3 6 -9 -14 -14 -42 -11 -15 2 -16 -8 -3 -29 8
-12 10 -12 10 -1 0 8 3 11 7 8 9 -9 44 23 37 34 -7 12 -2 11 34 -7 38 -18 41
-25 10 -19 -28 6 -58 -3 -58 -16 0 -6 6 -6 18 0 10 5 24 6 32 1 11 -7 11 -11
1 -24 -8 -9 -11 -16 -8 -16 14 0 46 60 41 74 -3 9 -10 14 -14 11 -5 -3 -15 -2
-24 1 -18 7 -22 39 -6 49 5 3 7 0 4 -8 -3 -8 0 -18 7 -23 8 -5 10 -3 4 7 -5 8
1 5 13 -5 22 -19 22 -19 23 0 1 10 1 24 -1 29 -1 6 3 6 10 -1 8 -8 8 -19 0
-38 -8 -21 -7 -27 2 -24 7 3 16 18 19 34 4 19 7 22 8 9 1 -17 3 -18 12 -5 8
12 9 10 7 -10 -3 -33 11 -58 23 -39 7 11 11 10 23 -6 13 -18 15 -19 21 -3 6
14 11 15 26 7 11 -5 24 -7 30 -3 6 3 17 -2 25 -12 14 -18 14 -18 8 0 -4 11 -1
22 7 27 11 6 11 9 1 9 -10 0 -10 5 -2 20 8 14 8 20 0 20 -6 0 -8 5 -5 10 3 6
16 10 28 10 18 0 19 -2 7 -10 -10 -6 -11 -10 -2 -10 6 0 12 -5 12 -11 0 -5 -4
-7 -10 -4 -5 3 -7 0 -4 -9 8 -21 34 -9 27 12 -6 15 -4 15 14 -1 16 -14 23 -15
29 -6 5 8 3 10 -6 4 -8 -5 -11 -4 -6 3 3 6 15 9 26 7 13 -3 20 2 21 13 0 10 3
12 6 5 2 -7 14 -13 24 -13 11 0 17 4 14 10 -3 6 1 7 9 4 15 -6 50 19 41 28 -3
3 2 5 10 5 13 0 13 -3 1 -16 -7 -9 -16 -29 -20 -45 -6 -23 -5 -27 6 -20 7 6
19 9 26 8 6 -1 17 -2 23 -3 5 0 7 -7 3 -13 -5 -9 -2 -9 9 1 9 7 17 20 17 28 0
10 5 11 18 4 13 -7 23 -6 32 2 10 10 11 7 5 -10 -4 -15 -2 -23 5 -23 7 0 9 -7
6 -16 -3 -8 -2 -12 4 -9 10 6 7 46 -5 65 -4 6 -16 8 -27 4 -18 -5 -19 -4 -7 9
8 8 18 12 23 9 5 -3 6 0 2 7 -6 9 -11 9 -23 0 -12 -10 -16 -10 -23 1 -12 19
-2 33 17 26 9 -4 21 1 29 11 10 14 13 14 14 4 0 -8 3 -12 6 -8 3 3 12 1 19 -6
9 -9 8 -15 -8 -28 -21 -17 -16 -39 9 -39 11 0 13 6 9 20 -5 16 -2 20 14 20 12
0 21 -4 21 -10 0 -11 36 -50 46 -50 4 0 0 7 -7 16 -12 15 -11 16 10 9 17 -5
22 -4 16 5 -4 7 -3 15 3 19 8 4 3 16 -14 34 -18 20 -21 27 -10 27 9 0 20 -9
27 -21 8 -15 14 -18 22 -10 6 6 18 11 27 11 13 0 13 -1 0 -10 -13 -9 -13 -10
0 -10 13 0 13 -2 0 -9 -8 -6 -17 -8 -20 -6 -3 2 -7 -6 -7 -18 -1 -11 -9 -25
-18 -29 -8 -5 -15 -14 -15 -21 0 -7 11 0 24 15 13 15 26 24 29 22 3 -3 10 4
17 15 6 13 16 19 23 14 9 -5 9 -4 0 8 -10 12 -8 15 10 15 23 0 37 -12 37 -35
0 -10 -8 -12 -32 -7 -31 6 -31 6 -13 -12 22 -20 61 -18 69 4 3 8 1 14 -5 14
-6 0 -8 4 -5 9 4 5 0 12 -6 14 -8 3 -6 6 5 6 9 1 18 -7 18 -16 1 -17 2 -17 6
0 2 9 9 17 14 17 14 0 11 -11 -8 -32 -14 -15 -14 -21 -3 -31 10 -10 11 -9 5 2
-6 10 -2 12 16 6 16 -4 20 -3 11 3 -11 7 -10 12 4 26 16 17 18 16 29 -11 11
-28 12 -28 23 -6 15 27 15 36 2 28 -13 -8 -13 8 1 22 8 8 7 13 -2 18 -8 6 -10
4 -4 -6 5 -8 5 -11 0 -7 -4 4 -14 3 -22 -3 -7 -6 -13 -7 -13 -2 0 5 12 16 26
23 22 12 27 12 34 0 5 -9 5 -19 -2 -27 -7 -9 -7 -13 1 -13 7 0 10 -4 6 -9 -3
-5 0 -13 6 -17 7 -4 9 -3 6 3 -4 6 2 13 12 16 10 2 21 17 25 32 4 15 14 34 21
42 25 24 18 36 -17 30 l-33 -6 28 13 c15 7 26 14 25 17 -2 2 3 -4 11 -13 7
-10 21 -18 30 -19z m195 2 c-7 -9 -34 10 -34 24 0 13 3 12 18 -2 10 -10 17
-20 16 -22z m605 13 c-11 -13 -6 -18 14 -15 5 1 6 -3 2 -9 -3 -5 -1 -10 6 -10
7 0 9 -3 6 -6 -4 -4 -12 -2 -19 4 -7 6 -17 10 -23 10 -5 0 -13 10 -17 22 -4
12 -4 19 1 15 5 -3 12 -1 16 5 4 6 11 8 16 4 6 -4 6 -11 -2 -20z m-725 -16
c-4 -6 -9 -6 -14 2 -6 9 -11 6 -20 -10 -11 -20 -10 -22 4 -17 10 4 15 3 11 -3
-12 -20 7 -32 20 -13 17 23 30 11 16 -15 -10 -19 -19 -21 -70 -13 -3 1 0 6 7
13 8 8 9 15 1 25 -8 9 -8 17 0 26 8 10 7 17 -2 26 -9 9 -4 9 21 0 17 -6 29
-15 26 -21z m348 23 c-8 -4 -13 -11 -12 -15 0 -3 -3 -14 -8 -22 -8 -15 -10
-15 -15 0 -4 11 -1 16 11 17 12 0 13 2 3 6 -11 5 -11 7 0 14 8 5 19 9 24 9 6
0 4 -4 -3 -9z m310 -5 c7 4 8 3 4 -4 -4 -7 -18 -9 -33 -6 -15 4 -24 3 -20 -3
3 -5 1 -15 -4 -23 -7 -11 -8 -8 -5 10 3 14 5 29 5 33 1 4 10 3 21 -3 11 -6 26
-8 32 -4z m-1457 -5 c3 -5 2 -12 -3 -15 -5 -3 -9 1 -9 9 0 17 3 19 12 6z m225
5 c0 -2 -7 -7 -16 -10 -8 -3 -12 -2 -9 4 6 10 25 14 25 6z m110 -27 c0 -5 -5
-9 -12 -9 -6 0 -8 3 -5 7 4 3 1 13 -6 22 -11 14 -10 14 6 2 9 -7 17 -17 17
-22z m537 16 c0 -8 -4 -12 -9 -9 -5 3 -6 10 -3 15 9 13 12 11 12 -6z m89 3 c4
-7 3 -8 -4 -4 -7 4 -12 2 -12 -5 0 -7 -3 -10 -6 -6 -6 5 3 27 11 27 2 0 7 -5
11 -12z m-1232 -6 c3 -5 -1 -9 -9 -9 -8 0 -12 4 -9 9 3 4 7 8 9 8 2 0 6 -4 9
-8z m216 -18 c0 -3 -4 -2 -10 1 -5 3 -10 1 -10 -6 0 -16 -13 -3 -16 16 -2 12
2 12 17 5 10 -6 19 -13 19 -16z m107 20 c-3 -3 -12 -4 -19 -1 -8 3 -5 6 6 6
11 1 17 -2 13 -5z m226 -11 c-4 -11 -3 -14 5 -9 17 10 15 -2 -2 -20 -19 -18
-32 -18 -39 0 -4 11 -1 13 11 9 9 -3 14 -3 10 2 -4 4 -3 14 3 22 15 18 20 16
12 -4z m183 -9 c1 -9 0 -13 -4 -10 -3 4 -7 14 -8 22 -1 9 0 13 4 10 3 -4 7
-14 8 -22z m119 16 c-3 -5 -1 -10 5 -10 6 0 8 -5 4 -11 -4 -8 -9 -7 -15 2 -7
12 -3 29 7 29 3 0 2 -4 -1 -10z m652 -12 c-3 -8 -6 -5 -6 6 -1 11 2 17 5 13 3
-3 4 -12 1 -19z m-252 -7 c-3 -6 -11 -11 -16 -11 -5 0 -4 6 3 14 14 16 24 13
13 -3z m-82 -6 c4 -8 3 -16 -1 -19 -4 -3 -9 4 -9 15 -2 23 3 25 10 4z m537
-16 c0 -5 -4 -9 -8 -9 -5 0 -9 7 -9 15 0 8 4 12 9 9 4 -3 8 -9 8 -15z m173 14
c-7 -2 -19 -2 -25 0 -7 3 -2 5 12 5 14 0 19 -2 13 -5z m-1828 -13 c-3 -5 -1
-10 5 -10 6 0 8 -5 4 -11 -4 -8 -9 -7 -15 2 -7 12 -3 29 7 29 3 0 2 -4 -1 -10z
m870 0 c3 -5 -1 -10 -9 -10 -9 0 -16 5 -16 10 0 6 4 10 9 10 6 0 13 -4 16 -10z
m-892 -30 c-4 -4 -21 -10 -38 -13 -16 -4 -24 -4 -17 -1 6 3 10 9 7 13 -2 5 8
6 23 3 25 -5 26 -4 12 14 -14 18 -14 18 3 5 10 -8 14 -17 10 -21z m472 20 c3
-5 1 -10 -4 -10 -6 0 -11 5 -11 10 0 6 2 10 4 10 3 0 8 -4 11 -10z m246 -7
c13 -16 12 -17 -3 -4 -10 7 -18 15 -18 17 0 8 8 3 21 -13z m1086 11 c-3 -3
-12 -4 -19 -1 -8 3 -5 6 6 6 11 1 17 -2 13 -5z m-2007 -14 c12 -7 10 -9 -8 -7
-12 0 -22 5 -22 9 0 11 12 10 30 -2z m35 0 c3 -5 1 -10 -4 -10 -6 0 -11 5 -11
10 0 6 2 10 4 10 3 0 8 -4 11 -10z m3835 -22 c0 -5 -7 -3 -15 6 -8 8 -15 18
-15 22 0 3 7 1 15 -6 8 -7 15 -17 15 -22z m-4085 12 c3 -6 -1 -7 -9 -4 -18 7
-21 14 -7 14 6 0 13 -4 16 -10z m100 0 c3 -5 1 -10 -4 -10 -6 0 -11 5 -11 10
0 6 2 10 4 10 3 0 8 -4 11 -10z m69 2 c3 -5 -1 -9 -9 -9 -8 0 -12 4 -9 9 3 4
7 8 9 8 2 0 6 -4 9 -8z m450 -7 c-4 -8 -11 -15 -16 -15 -6 0 -5 6 2 15 7 8 14
15 16 15 2 0 1 -7 -2 -15z m146 11 c0 -2 -8 -10 -17 -17 -16 -13 -17 -12 -4 4
13 16 21 21 21 13z m537 -11 c0 -8 -4 -15 -9 -15 -10 0 -11 14 -1 23 9 10 10
9 10 -8z m959 -4 c0 -20 -34 -25 -53 -9 -18 15 -10 23 24 24 21 1 29 -3 29
-15z m-1592 -3 c-3 -4 -11 -5 -19 -1 -21 7 -19 12 4 10 11 0 18 -5 15 -9z
m3583 -7 c0 -11 -5 -17 -9 -15 -4 3 -7 -6 -6 -20 2 -24 18 -38 18 -16 0 5 7 7
15 4 8 -4 12 -10 9 -15 -3 -5 -10 -7 -15 -4 -13 8 -11 -9 2 -22 8 -8 8 -13 0
-17 -6 -4 -11 0 -11 9 0 10 -5 13 -12 9 -6 -4 -8 -3 -5 3 4 6 0 14 -9 17 -8 3
-12 2 -9 -4 8 -13 -5 -13 -25 0 -13 8 -13 10 0 10 19 0 1 17 -25 23 -18 4 -18
5 2 6 12 0 25 -3 28 -9 10 -16 35 -12 29 5 -4 8 -1 21 5 29 6 7 8 16 4 19 -3
4 -1 7 5 7 6 0 10 -9 9 -19z m-4302 -3 c5 4 5 1 1 -5 -10 -18 -23 -16 -30 3
-5 13 -4 14 7 6 8 -7 18 -8 22 -4z m629 4 c2 -4 -4 -9 -15 -9 -11 -1 -17 2
-14 8 7 11 22 12 29 1z m3563 -23 c-12 -3 -26 -3 -32 0 -5 3 0 7 13 9 12 2 22
9 22 15 0 7 4 6 10 -3 7 -11 4 -16 -13 -21z m683 27 c0 -2 -7 -7 -16 -10 -8
-3 -12 -2 -9 4 6 10 25 14 25 6z m-4480 -10 c0 -2 -9 -6 -20 -9 -11 -3 -18 -1
-14 4 5 9 34 13 34 5z m4060 -6 c0 -5 -2 -10 -4 -10 -3 0 -8 5 -11 10 -3 6 -1
10 4 10 6 0 11 -4 11 -10z m-3960 -30 c-12 -8 -12 -10 4 -10 20 0 20 0 0 -15
-10 -8 -22 -15 -26 -15 -14 0 -9 27 7 40 8 7 12 17 8 24 -3 6 0 5 8 -2 12 -11
12 -14 -1 -22z m4010 20 c0 -5 -2 -10 -4 -10 -3 0 -8 5 -11 10 -3 6 -1 10 4
10 6 0 11 -4 11 -10z m55 -10 c3 -5 1 -10 -4 -10 -6 0 -11 5 -11 10 0 6 2 10
4 10 3 0 8 -4 11 -10z m-4691 -15 c3 -9 0 -15 -8 -15 -7 0 -13 7 -13 15 0 8 4
15 8 15 4 0 9 -7 13 -15z m250 0 c3 -8 3 -15 0 -15 -3 0 -12 7 -20 15 -13 13
-13 15 -1 15 8 0 17 -7 21 -15z m341 -3 c-3 -8 -5 -18 -5 -23 0 -6 -4 -8 -9
-4 -6 3 -14 -3 -20 -12 -11 -20 -15 -4 -5 21 3 9 11 13 18 10 6 -3 3 1 -7 9
-17 14 -16 15 8 13 16 0 23 -6 20 -14z m355 6 c0 -4 -11 -7 -25 -6 -14 1 -25
6 -25 10 0 4 11 7 25 6 14 -1 25 -6 25 -10z m3831 -5 c13 -16 12 -17 -3 -4
-10 7 -18 15 -18 17 0 8 8 3 21 -13z m-5997 -26 c-9 -5 -18 -6 -21 -3 -4 3 -1
6 5 6 7 0 12 8 12 18 0 14 2 15 10 2 6 -10 4 -17 -6 -23z m941 23 c-3 -5 0
-10 8 -10 21 0 17 -28 -5 -33 -15 -4 -17 -2 -9 7 15 18 2 27 -19 14 -23 -15
-6 -48 22 -40 24 6 14 -24 -14 -39 -17 -9 -19 -8 -14 8 6 20 -10 46 -34 56
-11 4 -10 6 5 7 20 1 20 2 1 9 -19 7 -19 8 2 13 12 4 20 2 16 -3 -9 -15 13
-10 26 6 14 17 24 20 15 5z m817 -4 c7 4 8 2 4 -5 -9 -13 -26 -5 -25 12 0 9 2
8 6 -1 2 -6 10 -9 15 -6z m1883 4 c3 -6 -1 -7 -9 -4 -18 7 -21 14 -7 14 6 0
13 -4 16 -10z m1860 1 c3 -5 2 -12 -3 -15 -5 -3 -9 1 -9 9 0 17 3 19 12 6z
m389 -7 c3 -8 11 -12 17 -8 8 4 9 3 5 -4 -9 -14 6 -16 20 -3 5 6 16 4 28 -5
17 -12 18 -14 3 -14 -9 0 -17 6 -17 13 -1 7 -6 5 -14 -6 -12 -15 -15 -15 -26
-2 -13 15 -35 11 -25 -6 4 -5 1 -9 -6 -9 -7 0 -9 10 -7 25 6 29 0 32 -18 8
-12 -16 -13 -16 -14 -1 0 27 44 38 54 12z m463 4 c13 -22 12 -37 -2 -31 -8 2
-11 12 -8 20 4 11 2 14 -5 9 -7 -4 -12 -2 -12 3 0 15 17 14 27 -1z m-5733 -10
c-3 -4 -11 -5 -19 -1 -21 7 -19 12 4 10 11 0 18 -5 15 -9z m230 3 c4 -5 -3 -7
-14 -4 -23 6 -26 13 -6 13 8 0 17 -4 20 -9z m229 0 c4 -1 7 -5 7 -10 0 -10
-38 -3 -45 9 -3 5 3 7 12 5 10 -2 21 -4 26 -4z m4471 -3 c-5 -7 -2 -9 9 -5 11
4 14 2 10 -9 -7 -18 -11 -18 -29 0 -11 11 -11 16 -1 19 18 8 19 8 11 -5z m476
-8 c0 -5 -8 -10 -17 -10 -15 0 -16 2 -3 10 19 12 20 12 20 0z m-5705 -11 c4
-5 -2 -6 -11 -2 -13 5 -15 3 -9 -8 8 -12 6 -12 -8 0 -21 17 -21 16 3 18 11 1
22 -2 25 -8z m466 -18 c7 11 9 10 9 -4 0 -25 -25 -16 -26 9 -1 19 -1 19 3 0 4
-16 7 -17 14 -5z m5704 19 c-3 -5 -1 -10 6 -10 7 0 10 -2 8 -5 -3 -2 -16 -1
-29 2 -22 6 -23 7 -4 14 26 10 26 10 19 -1z m217 -25 c4 -16 12 -32 19 -35 6
-4 10 -12 8 -18 -2 -7 -14 -3 -29 9 -14 12 -19 17 -11 13 9 -4 12 -2 9 7 -3 8
-15 20 -29 26 -14 7 -18 13 -9 13 13 0 13 1 0 10 -12 8 -9 9 10 7 17 -3 26
-12 32 -32z m-6262 -10 c9 5 9 1 0 -16 -10 -17 -10 -24 -1 -27 6 -2 11 -11 10
-20 0 -12 -2 -13 -6 -3 -5 11 -7 11 -15 0 -7 -10 -8 -4 -5 19 2 22 0 29 -7 22
-16 -16 -28 -12 -17 7 7 13 5 23 -7 38 -12 14 -9 13 10 -4 15 -13 32 -20 38
-16z m6490 25 c0 -5 -5 -10 -11 -10 -5 0 -7 5 -4 10 3 6 8 10 11 10 2 0 4 -4
4 -10z m-6552 -25 c-3 -3 -9 2 -12 12 -6 14 -5 15 5 6 7 -7 10 -15 7 -18z
m6357 15 c3 -5 2 -10 -4 -10 -5 0 -13 5 -16 10 -3 6 -2 10 4 10 5 0 13 -4 16
-10z m-6725 -20 c0 -4 -7 -11 -16 -14 -13 -5 -14 -4 -6 7 7 8 8 18 4 22 -4 5
-1 5 6 1 6 -4 12 -11 12 -16z m6570 0 c0 -5 -5 -12 -12 -16 -7 -4 -8 -3 -4 4
4 7 1 12 -9 12 -9 0 -14 4 -10 10 6 10 35 2 35 -10z m395 1 c-3 -6 -11 -11
-16 -11 -5 0 -4 6 3 14 14 16 24 13 13 -3z m128 12 c-7 -2 -19 -2 -25 0 -7 3
-2 5 12 5 14 0 19 -2 13 -5z m-7301 -35 c-6 -6 -12 -6 -17 3 -5 8 -4 10 3 5 7
-4 12 0 13 11 0 12 2 13 6 5 3 -8 1 -18 -5 -24z m478 16 c-3 -5 -11 -8 -17 -8
-7 1 -13 -2 -13 -7 0 -5 -5 -9 -10 -9 -6 0 -6 7 2 19 11 18 48 23 38 5z m300
6 c0 -5 -5 -10 -11 -10 -5 0 -7 5 -4 10 3 6 8 10 11 10 2 0 4 -4 4 -10z m163
-7 c-3 -7 -6 -13 -8 -13 -2 0 -5 6 -8 13 -3 8 1 14 8 14 7 0 11 -6 8 -14z
m5760 -14 c-9 -9 -12 -7 -10 9 1 14 5 18 11 12 7 -7 6 -14 -1 -21z m120 18 c7
3 9 3 5 -2 -4 -4 -3 -14 3 -21 7 -8 7 -14 -1 -19 -5 -3 -10 1 -10 10 0 13 -4
14 -20 5 -23 -12 -25 -8 -8 20 7 11 14 16 16 10 2 -6 9 -7 15 -3z m224 -7 c2
-20 -8 -26 -20 -13 -4 3 -2 12 4 20 15 17 14 17 16 -7z m40 4 c-3 -3 -12 -4
-19 -1 -8 3 -5 6 6 6 11 1 17 -2 13 -5z m253 -4 c3 -1 9 -2 13 -1 5 1 6 -3 2
-9 -5 -8 -11 -7 -21 1 -13 11 -18 6 -15 -14 1 -5 -4 -7 -10 -5 -22 7 -18 35 5
32 11 -1 23 -3 26 -4z m78 1 c1 -1 4 0 5 2 7 4 37 -26 36 -37 0 -7 -2 -6 -6 2
-2 6 -8 10 -13 7 -4 -3 -13 2 -20 10 -6 7 -17 12 -25 9 -7 -3 -15 -1 -19 4 -4
6 24 9 42 3z m513 -14 c-14 -14 -14 -40 -1 -32 6 3 10 -1 10 -9 0 -9 -6 -13
-15 -10 -9 4 -14 18 -13 39 1 24 5 32 15 28 10 -4 11 -9 4 -16z m-8231 -3 c0
-8 -4 -12 -10 -9 -5 3 -10 10 -10 16 0 5 5 9 10 9 6 0 10 -7 10 -16z m413 4
c4 -10 7 -10 18 0 7 6 18 12 24 12 5 0 2 -5 -7 -11 -10 -5 -15 -16 -11 -24 3
-10 1 -13 -9 -10 -17 7 -42 45 -29 45 5 0 11 -6 14 -12z m877 8 c0 -2 -7 -6
-15 -10 -8 -3 -15 -1 -15 4 0 6 7 10 15 10 8 0 15 -2 15 -4z m6145 -6 c-3 -5
-1 -10 5 -10 6 0 8 -5 4 -11 -4 -7 -10 -7 -16 -1 -9 9 -3 32 8 32 3 0 2 -4 -1
-10z m79 2 c3 -5 -1 -9 -9 -9 -8 0 -15 4 -15 9 0 4 4 8 9 8 6 0 12 -4 15 -8z
m303 -14 c-3 -8 -6 -5 -6 6 -1 11 2 17 5 13 3 -3 4 -12 1 -19z m129 10 c3 -4
-1 -5 -10 -4 -8 1 -18 5 -22 8 -3 4 1 5 10 4 8 -1 18 -5 22 -8z m-7841 -8 c-3
-5 -12 -10 -18 -10 -7 0 -6 4 3 10 19 12 23 12 15 0z m405 0 c0 -5 -5 -10 -11
-10 -5 0 -7 5 -4 10 3 6 8 10 11 10 2 0 4 -4 4 -10z m6260 1 c0 -12 -20 -25
-27 -18 -7 7 6 27 18 27 5 0 9 -4 9 -9z m1256 2 c-3 -4 -17 -8 -29 -10 -17 -2
-19 -1 -7 7 17 11 47 14 36 3z m-7711 -13 c-3 -5 -12 -10 -18 -10 -7 0 -6 4 3
10 19 12 23 12 15 0z m394 -6 c-6 -7 -17 -10 -25 -7 -19 7 -8 22 16 20 14 -1
16 -5 9 -13z m6341 1 c-7 -9 -15 -13 -19 -10 -3 3 1 10 9 15 21 14 24 12 10
-5z m235 -15 c2 -19 0 -20 -9 -8 -6 8 -15 15 -21 16 -5 0 -11 5 -13 10 -1 5 7
8 19 7 16 -1 23 -9 24 -25z m425 20 c0 -5 -5 -10 -11 -10 -5 0 -7 5 -4 10 3 6
8 10 11 10 2 0 4 -4 4 -10z m-7734 -9 c-4 -5 -1 -11 6 -13 7 -3 5 -7 -6 -11
-10 -4 -15 -3 -11 3 3 6 0 10 -7 10 -9 0 -9 3 2 10 19 12 23 12 16 1z m415
-14 c-10 -9 -11 -8 -5 6 3 10 9 15 12 12 3 -3 0 -11 -7 -18z m6579 13 c0 -5
-10 -10 -22 -10 -19 0 -20 2 -8 10 19 13 30 13 30 0z m545 0 c-3 -5 -12 -10
-18 -10 -7 0 -6 4 3 10 19 12 23 12 15 0z m290 -10 c-3 -5 -12 -10 -18 -10 -7
0 -6 4 3 10 19 12 23 12 15 0z m225 -5 c0 -8 -3 -15 -7 -14 -5 1 -18 -2 -30
-6 -24 -8 -29 -20 -13 -30 12 -7 4 -25 -12 -25 -5 0 -8 7 -4 15 4 10 -1 15
-14 15 -11 0 -20 5 -20 10 0 6 3 9 8 8 15 -3 62 15 73 28 15 18 19 18 19 -1z
m140 5 c0 -5 -2 -10 -4 -10 -3 0 -8 5 -11 10 -3 6 -1 10 4 10 6 0 11 -4 11
-10z m-8270 -26 c0 -2 -9 0 -20 6 -11 6 -20 13 -20 16 0 2 9 0 20 -6 11 -6 20
-13 20 -16z m7534 10 c5 -14 4 -15 -9 -4 -17 14 -19 20 -6 20 5 0 12 -7 15
-16z m-7654 2 c0 -3 -4 -8 -10 -11 -5 -3 -10 -1 -10 4 0 6 5 11 10 11 6 0 10
-2 10 -4z m8335 -6 c3 -6 -1 -7 -9 -4 -18 7 -21 14 -7 14 6 0 13 -4 16 -10z
m672 3 c-4 -3 -2 -12 4 -20 6 -7 8 -13 3 -13 -5 0 -3 -4 5 -9 9 -6 5 -8 -14
-8 -17 0 -22 2 -15 7 7 4 10 15 7 23 -5 14 0 27 11 27 3 0 2 -3 -1 -7z m-8640
-9 c-3 -3 -12 -4 -19 -1 -8 3 -5 6 6 6 11 1 17 -2 13 -5z m8009 -2 c8 -5 7
-11 -4 -22 -14 -13 -15 -12 -9 2 3 9 1 19 -6 22 -7 2 -7 5 -2 5 6 0 15 -3 21
-7z m-8532 -11 c3 -5 -1 -11 -9 -14 -9 -4 -12 -1 -8 9 6 16 10 17 17 5z m8211
-1 c-3 -5 -12 -10 -18 -10 -7 0 -6 4 3 10 19 12 23 12 15 0z m184 -25 c-6 -6
-13 -5 -19 5 -6 9 -5 17 3 22 15 9 29 -14 16 -27z m311 20 c0 -8 -2 -15 -4
-15 -2 0 -13 -3 -23 -6 -15 -5 -15 -4 -3 5 13 9 13 11 0 11 -13 0 -13 1 0 10
21 14 30 12 30 -5z m-9059 -12 c9 -9 7 -11 -5 -9 -9 1 -21 7 -27 13 -9 9 -7
11 5 9 9 -1 21 -7 27 -13z m216 10 c-4 -3 -2 -12 4 -20 15 -17 1 -17 -17 1
-11 11 -11 16 -1 19 18 8 21 8 14 0z m37 -9 c3 -8 2 -12 -4 -9 -6 3 -10 10
-10 16 0 14 7 11 14 -7z m9516 2 c0 -2 -8 -10 -17 -17 -16 -13 -17 -12 -4 4
13 16 21 21 21 13z m-1462 -31 c-3 -3 -9 2 -12 12 -6 14 -5 15 5 6 7 -7 10
-15 7 -18z m-8005 -18 c-3 -4 -6 -7 -7 -5 -1 2 -8 12 -16 22 -14 18 -14 18 7
6 12 -8 19 -18 16 -23z m-114 -3 c-6 -8 -17 -14 -23 -14 -6 0 -3 7 6 14 10 7
14 17 10 21 -4 5 -1 5 6 1 10 -6 10 -11 1 -22z m9656 16 c3 -5 1 -10 -4 -10
-6 0 -11 5 -11 10 0 6 2 10 4 10 3 0 8 -4 11 -10z m-9825 -8 c0 -4 -9 -13 -20
-20 -24 -15 -26 -9 -4 12 17 18 24 20 24 8z m9780 -2 c0 -5 -5 -10 -11 -10 -5
0 -7 5 -4 10 3 6 8 10 11 10 2 0 4 -4 4 -10z m-9664 -12 c4 -6 3 -8 -3 -5 -6
4 -16 0 -23 -8 -7 -8 -17 -15 -23 -15 -11 0 23 38 35 39 4 1 10 -4 14 -11z
m204 8 c0 -2 -7 -7 -16 -10 -8 -3 -12 -2 -9 4 6 10 25 14 25 6z m9260 -11 c0
-8 -2 -15 -4 -15 -2 0 -6 7 -10 15 -3 8 -1 15 4 15 6 0 10 -7 10 -15z m-9686
-37 c-1 -24 2 -48 7 -54 5 -7 4 -11 -4 -11 -10 0 -13 15 -12 51 1 28 3 52 4
54 5 9 7 -4 5 -40z m461 32 c3 -5 4 -10 1 -10 -2 0 -12 -3 -20 -6 -12 -5 -15
-2 -10 10 7 18 20 21 29 6z m9620 -10 c-1 -11 -4 -22 -7 -25 -4 -5 -4 34 1 43
4 8 7 -1 6 -18z m-10114 -34 c8 -13 8 -17 0 -12 -14 9 -14 -7 -1 -20 8 -8 7
-14 -2 -22 -11 -9 -14 -3 -15 26 0 20 -4 46 -8 57 -6 16 -5 17 4 5 7 -8 16
-23 22 -34z m9883 32 c-3 -5 -10 -6 -15 -3 -5 4 -9 1 -9 -6 0 -7 -3 -10 -6 -6
-9 9 3 24 20 24 8 0 13 -4 10 -9z m156 8 c0 -2 -8 -10 -17 -17 -16 -13 -17
-12 -4 4 13 16 21 21 21 13z m140 -2 c0 -8 -19 -13 -24 -6 -3 5 1 9 9 9 8 0
15 -2 15 -3z m87 -26 c-3 -7 -5 -2 -5 12 0 14 2 19 5 13 2 -7 2 -19 0 -25z
m-9597 -4 c0 -8 -4 -12 -10 -9 -5 3 -10 13 -10 21 0 8 5 12 10 9 6 -3 10 -13
10 -21z m9400 22 c0 -3 -4 -8 -10 -11 -5 -3 -10 -1 -10 4 0 6 5 11 10 11 6 0
10 -2 10 -4z m-10110 -20 c0 -11 -19 -15 -25 -6 -3 5 1 10 9 10 9 0 16 -2 16
-4z m10350 -96 c13 0 13 -1 0 -10 -11 -7 -19 -5 -31 10 -9 10 -19 16 -23 13
-3 -4 -6 -1 -6 6 0 7 -6 11 -14 8 -9 -4 -16 3 -19 18 -7 40 6 39 43 -4 19 -23
42 -41 50 -41z m-10 50 c4 0 10 -9 13 -20 3 -13 0 -20 -9 -20 -8 0 -14 4 -14
9 0 5 -7 17 -17 26 -14 14 -14 18 -2 26 9 6 15 4 17 -6 2 -8 7 -15 12 -15z
m-10018 -16 c-5 -26 -7 -27 -31 -14 -22 11 -28 30 -10 30 5 0 7 -4 4 -10 -3
-5 -1 -10 4 -10 6 0 11 7 11 16 0 9 6 14 13 11 6 -2 10 -13 9 -23z m6578 -54
c0 -5 -4 -12 -10 -15 -5 -3 -10 -4 -10 -1 0 2 -3 12 -6 20 -5 12 -2 15 10 10
9 -3 16 -10 16 -14z m-53 -82 c-3 -7 -5 -2 -5 12 0 14 2 19 5 13 2 -7 2 -19 0
-25z m-1414 -44 c11 -11 -3 -24 -18 -18 -8 4 -12 10 -9 15 6 11 18 12 27 3z
m-426 -10 c-3 -3 -12 -4 -19 -1 -8 3 -5 6 6 6 11 1 17 -2 13 -5z m1263 -4 c0
-5 -4 -10 -10 -10 -5 0 -10 5 -10 10 0 6 5 10 10 10 6 0 10 -4 10 -10z m-845
-30 c10 -16 -28 -89 -45 -90 -14 0 -36 19 -54 48 -10 16 11 52 37 61 22 9 50
0 62 -19z m-415 16 c0 -2 -7 -9 -15 -16 -13 -11 -14 -10 -9 4 5 14 24 23 24
12z m1333 -66 c5 -19 -1 -34 -19 -55 l-25 -30 5 27 c3 14 9 34 13 44 5 13 3
16 -10 11 -19 -7 -20 -6 -11 18 5 13 8 14 15 3 7 -10 9 -8 9 7 0 25 15 8 23
-25z m157 -34 c0 -3 -4 -8 -10 -11 -5 -3 -10 -1 -10 4 0 6 5 11 10 11 6 0 10
-2 10 -4z m408 -141 c-3 -3 -9 2 -12 12 -6 14 -5 15 5 6 7 -7 10 -15 7 -18z
m-4668 -595 c0 -5 -2 -10 -4 -10 -3 0 -8 5 -11 10 -3 6 -1 10 4 10 6 0 11 -4
11 -10z m206 -136 c-7 -27 -33 -32 -42 -9 -4 8 2 27 11 42 16 23 18 24 27 9 5
-10 7 -28 4 -42z m108 26 c30 -11 34 -35 9 -44 -20 -8 -59 27 -49 43 9 13 8
13 40 1z m-883 -291 c20 -10 30 -94 22 -174 l-6 -55 -44 0 c-48 0 -65 19 -43
46 17 20 6 30 -57 54 -43 16 -53 17 -62 6 -7 -8 -25 -16 -42 -18 -28 -4 -32
-1 -52 41 -24 51 -26 68 -14 94 7 16 23 17 145 16 75 -1 144 -5 153 -10z
m1289 -26 c0 -14 -19 -38 -25 -32 -8 8 5 39 16 39 5 0 9 -3 9 -7z m-1697 -44
c5 -9 7 -28 3 -42 -7 -31 -37 -41 -81 -29 -25 7 -31 14 -33 42 -2 18 2 36 8
40 22 13 92 6 103 -11z m2386 -225 c19 -24 21 -37 16 -113 -2 -47 -5 -89 -5
-93 0 -5 -5 -8 -10 -8 -6 0 -10 19 -9 43 0 23 -3 62 -8 86 -7 39 -10 42 -21
28 -13 -15 -15 -15 -30 -1 -14 15 -14 19 3 50 22 41 37 43 64 8z m-1981 -16
c19 -19 14 -55 -8 -61 -17 -4 -20 0 -20 34 0 40 7 48 28 27z m-860 -32 c2 -10
-4 -26 -14 -37 -17 -19 -14 -19 147 -20 90 -1 193 -2 228 -3 l65 -1 0 40 c1
36 4 40 26 40 21 0 26 -5 28 -32 2 -20 -1 -33 -8 -33 -6 0 -8 -4 -5 -10 6 -10
45 -14 45 -4 0 3 -4 13 -9 22 -5 9 -5 27 -1 38 7 18 17 22 58 22 45 0 51 -3
57 -25 4 -17 0 -32 -11 -44 -16 -17 -16 -19 -1 -19 10 0 17 -8 17 -18 0 -10
-7 -19 -15 -19 -8 0 -11 5 -8 10 4 6 -2 8 -15 4 -12 -4 -31 -10 -42 -13 -13
-4 -20 -2 -20 6 0 10 -4 9 -16 -1 -16 -14 -107 -14 -112 0 -1 4 -14 6 -28 3
-16 -3 -29 1 -34 8 -7 11 -11 11 -24 1 -12 -10 -19 -11 -30 -2 -11 9 -19 9
-36 -1 -15 -10 -22 -10 -28 -1 -10 16 -79 20 -94 5 -6 -6 -20 -12 -30 -12 -13
0 -18 -8 -18 -29 0 -43 -10 -61 -31 -61 -28 0 -35 29 -16 62 l16 28 -39 0
c-31 0 -38 3 -34 15 8 21 -16 19 -32 -2 -12 -17 -13 -16 -14 5 0 15 6 22 20
22 17 0 19 5 13 31 -4 21 -1 34 8 40 19 12 33 6 37 -15z m72 -11 c0 -18 -5
-25 -19 -25 -26 0 -36 17 -21 35 19 23 40 18 40 -10z m-82 -116 c-2 -6 -8 -10
-13 -10 -5 0 -11 4 -13 10 -2 6 4 11 13 11 9 0 15 -5 13 -11z m1752 -69 c0 -5
-4 -10 -10 -10 -5 0 -10 5 -10 10 0 6 5 10 10 10 6 0 10 -4 10 -10z m4 -29 c9
-14 -4 -41 -20 -41 -8 0 -14 8 -14 18 0 29 22 43 34 23z m-1576 -45 c2 -3 1
-10 -3 -17 -6 -8 -34 -10 -97 -7 -90 5 -113 12 -89 27 12 8 180 5 189 -3z
m102 -6 c12 -8 9 -10 -12 -10 -16 0 -31 0 -35 -1 -4 0 -9 4 -11 10 -5 14 38
14 58 1z m340 -11 c0 -19 -4 -20 -57 -14 -32 4 -65 12 -73 17 -10 6 -5 7 17 3
17 -3 33 -3 36 2 3 4 21 9 41 10 30 1 36 -2 36 -18z m-175 1 c4 -6 -2 -9 -14
-7 -29 4 -39 17 -13 17 11 0 24 -5 27 -10z m97 -72 c7 -19 -2 -38 -17 -38 -21
0 -28 19 -15 35 15 18 26 19 32 3z m58 -12 c0 -18 -17 -29 -30 -21 -8 5 -7 11
1 21 15 18 29 18 29 0z m1210 -12 c0 -8 -4 -12 -10 -9 -5 3 -10 10 -10 16 0 5
5 9 10 9 6 0 10 -7 10 -16z m-2230 2 c0 -16 -14 -36 -26 -36 -14 0 -19 22 -7
33 7 8 33 10 33 3z m77 -105 c-16 -51 -38 -62 -68 -35 -23 21 -24 37 -3 55 14
11 18 10 29 -5 23 -30 38 -9 31 43 l-6 46 16 -29 c14 -26 15 -33 1 -75z m333
25 c0 -18 -5 -37 -11 -43 -8 -8 -8 -17 0 -31 12 -22 6 -32 -21 -32 -14 0 -18
8 -18 33 0 17 -1 44 -1 60 -1 15 4 34 11 42 18 22 40 6 40 -29z m68 2 c-2 -25
-8 -33 -23 -33 -20 0 -31 25 -21 51 3 8 15 14 26 14 18 0 21 -5 18 -32z m102
21 c0 -8 4 -8 13 -2 6 6 47 10 90 10 l77 0 0 -37 c0 -47 -21 -68 -44 -45 -9 9
-22 15 -29 12 -6 -2 -19 0 -29 4 -20 11 -31 -12 -22 -47 7 -28 -18 -43 -41
-24 -12 10 -18 10 -31 0 -12 -11 -18 -11 -31 2 -8 9 -12 21 -9 27 9 14 43 14
52 0 10 -16 23 9 17 32 -6 21 -18 25 -28 9 -10 -17 -35 8 -35 35 0 12 3 25 7
28 11 11 43 8 43 -4z m413 -2 c24 5 27 3 27 -24 0 -16 -7 -38 -15 -49 -14 -17
-16 -18 -28 -3 -6 9 -23 16 -37 15 -19 -1 -26 5 -28 22 -5 31 15 54 37 43 9
-5 29 -7 44 -4z m-113 -54 c-1 -19 -18 -33 -33 -27 -18 6 -21 16 -10 27 9 9
43 9 43 0z m-406 -48 c3 -9 -1 -18 -10 -22 -19 -7 -39 11 -30 26 10 16 33 13
40 -4z m336 -10 c0 -9 -6 -12 -16 -8 -13 5 -13 7 -2 14 17 11 18 11 18 -6z
m-306 -60 c-6 -16 -44 -21 -44 -7 0 14 12 22 31 22 12 0 16 -5 13 -15z m401
-13 c-3 -3 -11 0 -18 7 -9 10 -8 11 6 5 10 -3 15 -9 12 -12z m121 -2 c0 -15
-5 -19 -16 -14 -8 3 -24 9 -35 12 -18 5 -18 6 5 13 40 11 46 10 46 -11z m-971
-10 c0 -22 -29 -18 -33 3 -3 14 1 18 15 15 10 -2 18 -10 18 -18z m339 -26 c8
-21 -11 -45 -30 -37 -14 5 -19 34 -7 46 12 12 31 7 37 -9z m346 -25 c0 -23
-28 -26 -37 -3 -6 16 15 37 29 28 4 -3 8 -14 8 -25z m4359 -19 c-19 -85 -26
-249 -14 -325 7 -48 6 -49 -10 -27 -9 12 -18 35 -20 50 -2 15 -5 27 -6 27 -4
0 -5 101 0 109 2 6 6 25 7 43 2 35 43 178 49 172 2 -2 -1 -24 -6 -49z m-4296
25 c1 -5 -6 -11 -15 -13 -11 -2 -18 3 -18 13 0 17 30 18 33 0z m261 -1 c13
-35 6 -83 -14 -94 -22 -12 -118 -11 -126 2 -3 4 0 8 6 8 6 0 15 11 20 25 5 14
16 25 25 25 8 0 15 6 15 13 0 7 12 18 28 24 38 15 39 15 46 -3z m-619 -54 c-5
-8 -11 -8 -17 -2 -6 6 -7 16 -3 22 5 8 11 8 17 2 6 -6 7 -16 3 -22z m2805 18
c0 -5 -25 -8 -56 -8 -30 0 -53 3 -50 8 6 10 106 10 106 0z m4450 8 c0 -3 -4
-8 -10 -11 -5 -3 -10 -1 -10 4 0 6 5 11 10 11 6 0 10 -2 10 -4z m-7160 -22 c0
-8 -4 -12 -10 -9 -5 3 -10 10 -10 16 0 5 5 9 10 9 6 0 10 -7 10 -16z m7246
-51 c17 -12 41 -23 52 -23 24 0 30 16 10 23 -18 6 -8 13 28 20 24 5 36 0 58
-19 l27 -26 23 25 c21 22 30 25 82 22 93 -4 114 -12 114 -45 0 -21 -6 -29 -23
-33 -12 -4 -129 -6 -260 -6 l-237 -1 0 39 c0 54 20 73 63 59 17 -6 46 -22 63
-35z m-6408 15 c-2 -15 -13 -24 -36 -30 -27 -7 -33 -13 -30 -31 2 -13 9 -21
18 -20 8 1 24 3 35 5 14 2 21 -3 23 -20 l4 -23 -123 2 c-67 1 -132 4 -146 7
-44 8 -18 27 38 27 l53 0 9 45 c5 25 14 48 21 52 6 4 39 8 74 8 60 0 63 -1 60
-22z m7007 -18 c10 -16 41 -11 60 10 28 30 73 26 86 -7 10 -27 11 -27 21 -8
16 29 29 35 50 24 21 -11 26 -78 6 -80 -22 -2 -392 2 -394 4 -1 1 -5 17 -9 35
-9 41 15 52 58 27 26 -16 31 -16 41 -3 21 28 63 27 81 -2z m333 14 c12 -8 29
-28 37 -44 14 -28 14 -29 -14 -35 -16 -3 -39 -3 -53 0 -21 5 -24 11 -20 38 7
63 13 67 50 41z m123 -21 c17 -30 17 -32 -1 -48 -14 -13 -23 -14 -38 -6 -29
15 -35 40 -17 68 20 30 34 26 56 -14z m-9013 11 c-4 -24 -42 -35 -64 -20 -24
18 -9 36 32 36 28 0 35 -4 32 -16z m630 -12 c3 -17 -2 -22 -17 -22 -14 0 -21
6 -21 18 0 38 33 41 38 4z m3592 9 c19 -37 12 -70 -16 -77 -24 -6 -120 2 -136
12 -13 8 26 73 44 74 10 0 22 -9 28 -20 14 -27 28 -25 42 5 13 30 24 32 38 6z
m543 6 c34 15 47 5 47 -36 0 -38 -1 -38 -45 -44 -67 -10 -95 5 -95 47 0 38 14
48 48 33 15 -7 29 -7 45 0z m2907 -13 c17 -43 12 -52 -28 -56 -76 -7 -99 16
-57 58 33 33 72 32 85 -2z m150 13 c0 -34 -56 -82 -79 -67 -11 6 -8 16 14 44
27 35 65 49 65 23z m1308 -15 c2 -12 9 -22 15 -22 25 0 -20 -29 -48 -31 -67
-5 -70 -2 -29 41 42 43 57 46 62 12z m140 16 c10 -13 15 -40 13 -65 -1 -8 -17
-13 -46 -13 -52 0 -58 14 -23 60 23 32 40 37 56 18z m139 -20 c35 -34 43 -58
19 -58 -23 0 -46 11 -46 23 0 6 -7 18 -16 28 -14 16 -12 39 4 39 3 0 21 -14
39 -32z m111 20 c18 -18 15 -77 -3 -85 -21 -7 -55 25 -55 52 0 23 17 45 35 45
6 0 16 -5 23 -12z m-8966 -10 c-9 -9 -15 -9 -24 0 -9 9 -7 12 12 12 19 0 21
-3 12 -12z m2353 -6 c14 9 21 7 32 -8 11 -15 17 -17 33 -6 26 16 27 16 33 -14
2 -14 -1 -31 -9 -38 -16 -17 -132 -20 -151 -5 -14 12 -17 47 -7 74 6 14 9 14
28 1 16 -10 27 -11 41 -4z m649 -31 c13 44 17 50 29 47 6 -3 13 -13 15 -24 8
-47 12 -48 46 -15 l34 33 -2 -31 c-1 -17 -6 -34 -11 -39 -12 -11 -139 -22
-153 -13 -5 3 -13 26 -16 51 l-7 45 30 -34 c21 -24 32 -30 35 -20z m997 29
c15 0 35 -7 44 -16 15 -16 14 -18 -12 -35 -17 -12 -46 -19 -73 -19 -51 0 -82
13 -56 23 9 4 16 13 16 21 0 23 31 49 43 37 6 -6 23 -11 38 -11z m361 -25 c3
-29 2 -30 -44 -33 l-48 -3 23 35 c35 54 63 55 69 1z m4898 26 c5 -11 10 -31
10 -45 0 -22 -4 -26 -30 -26 -26 0 -30 4 -30 26 0 29 16 64 30 64 5 0 14 -9
20 -19z m-6538 -41 c3 -22 -1 -25 -31 -28 -32 -3 -33 -2 -26 25 10 42 25 57
41 41 7 -7 14 -24 16 -38z m638 20 c8 -31 -5 -50 -36 -50 -18 0 -24 6 -24 21
0 55 48 79 60 29z m6191 -8 c7 -35 -10 -58 -36 -48 -17 6 -20 39 -4 67 14 28
32 19 40 -19z m-5803 1 c-2 -22 -9 -29 -32 -31 l-29 -4 24 31 c30 38 41 39 37
4z m139 8 c2 -20 -23 -48 -33 -39 -3 3 -2 17 2 32 7 30 29 35 31 7z m5189 -16
c-4 -16 -13 -25 -26 -25 -26 0 -25 8 2 37 25 27 33 24 24 -12z m360 8 c25 -26
20 -49 -7 -38 -17 7 -42 65 -28 65 6 0 21 -12 35 -27z m199 -29 c-16 -24 -35
-28 -42 -8 -2 5 9 22 24 39 24 25 28 27 31 12 2 -10 -4 -29 -13 -43z m-6167
24 c3 -15 -4 -18 -33 -18 -33 0 -35 2 -25 21 14 24 53 22 58 -3z m-3118 -61
c0 -24 -26 -32 -58 -18 -22 11 -28 10 -39 -6 -12 -15 -11 -20 6 -33 22 -16 19
-24 -16 -54 -22 -18 -24 -18 -43 -1 -43 39 -6 146 46 134 22 -5 64 15 64 30 1
23 39 -28 40 -52z m334 43 c31 -11 33 -26 6 -35 -11 -3 -20 -12 -20 -19 0 -39
-61 -39 -87 1 -13 20 -14 28 -3 48 10 19 19 22 46 19 18 -2 44 -8 58 -14z
m8127 7 c-1 -12 -15 -9 -19 4 -3 6 1 10 8 8 6 -3 11 -8 11 -12z m-8381 -36 c0
-11 -26 -22 -34 -14 -12 12 -5 23 14 23 11 0 20 -4 20 -9z m493 -58 c-7 -2
-19 -2 -25 0 -7 3 -2 5 12 5 14 0 19 -2 13 -5z m248 -26 c4 -44 -5 -94 -17
-103 -12 -10 -12 -13 2 -25 12 -10 14 -23 10 -53 -7 -45 -8 -60 -6 -126 1 -69
-6 -156 -14 -169 -10 -16 -111 -14 -125 3 -15 17 -16 41 -7 200 4 90 11 134
20 145 13 14 13 19 0 35 -14 19 -20 87 -8 98 11 12 144 7 145 -5z m6822 -13
c15 -5 17 -19 17 -120 0 -105 1 -114 19 -114 25 0 31 26 31 132 0 78 2 88 21
98 28 15 127 2 138 -18 5 -8 6 -62 3 -119 l-5 -103 59 -1 c32 -1 75 -2 94 -3
33 -1 35 1 35 29 l0 30 -67 3 c-79 3 -99 19 -75 55 14 22 14 26 -6 45 -28 29
-13 43 49 47 27 2 72 9 99 16 28 7 85 13 128 13 68 1 81 -2 96 -20 22 -27 148
-42 158 -18 8 21 41 36 63 29 14 -4 20 -15 20 -36 0 -40 37 -42 42 -1 2 19 9
28 25 30 28 4 40 -36 24 -76 -18 -43 -19 -191 -2 -201 12 -8 13 -61 7 -340 -5
-227 -4 -337 4 -350 8 -16 7 -22 -8 -30 -14 -7 -17 -18 -14 -45 3 -24 0 -36
-8 -36 -7 0 -11 14 -9 38 5 74 -22 101 -79 80 -28 -11 -102 -3 -103 10 0 4 -1
32 -3 62 -4 75 -15 110 -35 110 -14 1 -14 2 2 11 15 9 17 29 17 178 l0 168
-51 6 c-29 4 -56 4 -60 1 -5 -3 -9 -49 -9 -103 0 -138 -6 -160 -46 -177 -26
-11 -33 -20 -36 -46 -2 -28 -7 -33 -28 -33 -22 0 -25 5 -26 35 -3 67 -1 65
-56 67 -97 4 -133 8 -146 16 -7 5 -18 5 -25 0 -17 -12 -149 -8 -175 6 -14 7
-23 8 -27 1 -10 -17 -25 -11 -34 13 -6 16 -16 22 -37 22 -20 0 -32 7 -39 23
-12 27 -31 28 -44 3 -11 -19 -88 -34 -97 -19 -3 4 -22 8 -42 8 -39 0 -71 14
-59 26 4 4 28 8 54 8 40 1 50 5 58 23 15 35 33 35 50 3 21 -41 35 -38 35 8 0
51 -17 58 -150 61 -58 2 -108 5 -112 7 -5 3 -8 13 -8 23 0 15 -36 41 -59 41
-4 0 -7 -27 -7 -61 1 -52 4 -63 26 -79 20 -15 22 -22 13 -31 -9 -9 -34 -10
-100 -3 l-88 9 3 43 c5 59 -26 56 -33 -4 -3 -33 -16 -45 -41 -38 -24 6 -36 61
-27 119 6 36 36 52 74 40 13 -4 19 -2 19 9 0 11 -9 16 -28 16 -16 0 -37 6 -48
14 -18 14 -18 15 9 25 35 14 47 14 47 1 0 -6 35 -10 85 -10 80 0 86 2 94 23 8
22 7 22 -93 28 -55 3 -113 11 -127 17 -24 9 -26 15 -23 49 6 51 6 57 -1 143
-3 43 -1 81 4 90 9 13 49 15 250 16 228 1 241 0 247 -18 5 -18 7 -18 28 5 19
21 33 25 77 26 30 0 62 -2 72 -5z m-6566 -21 c7 -18 -38 -63 -63 -63 -29 0
-28 32 2 57 34 27 52 29 61 6z m5690 1 c3 -9 1 -206 -4 -438 -9 -356 -8 -425
4 -449 7 -15 11 -32 8 -37 -7 -11 -288 -12 -372 -2 -41 6 -51 10 -44 21 6 9
44 15 135 18 69 3 124 8 121 11 -3 3 -43 9 -88 13 -127 12 -147 18 -147 44 0
18 4 21 24 18 13 -3 27 0 31 7 5 8 10 8 21 -1 17 -14 47 -4 41 14 -2 6 -21 13
-43 14 -21 1 -47 3 -56 3 -24 2 -22 23 6 79 13 25 30 59 38 75 7 16 21 31 31
34 19 5 23 18 6 24 -8 3 -4 19 10 48 11 24 21 49 21 55 0 28 26 65 46 65 29 0
35 10 20 32 -12 16 -10 28 10 86 13 37 24 75 24 85 0 9 9 26 20 37 14 14 18
27 14 50 -7 30 11 89 30 102 21 15 86 9 93 -8z m-6669 -12 c2 -7 -3 -12 -12
-12 -9 0 -16 7 -16 16 0 17 22 14 28 -4z m3357 5 c3 -6 1 -118 -3 -247 -9
-245 -19 -298 -48 -268 -11 11 -14 63 -16 259 0 135 2 251 6 257 10 16 55 15
61 -1z m292 -19 c16 -8 27 -7 44 6 36 25 58 20 73 -16 8 -18 11 -38 8 -46 -2
-8 1 -18 8 -22 11 -7 11 -12 2 -23 -7 -8 -14 -46 -16 -83 -2 -38 -5 -69 -6
-69 -2 0 -10 -171 -10 -214 0 -21 -3 -23 -30 -18 -25 6 -31 3 -36 -17 -4 -19
-14 -25 -51 -30 -69 -9 -118 -7 -131 6 -16 16 -4 98 19 124 15 16 16 23 7 32
-10 10 -10 17 0 32 7 12 8 21 2 25 -14 9 -12 43 2 47 8 3 7 11 -5 28 -22 32
-23 127 -1 159 12 17 13 26 5 34 -12 12 -15 50 -4 61 9 9 91 -2 120 -16z
m5031 10 c14 -14 16 -64 3 -72 -20 -13 -56 55 -38 73 14 14 20 14 35 -1z
m-4788 -37 c0 -21 3 -53 7 -71 4 -25 3 -32 -7 -28 -21 7 -38 40 -23 45 9 3 10
9 1 22 -7 11 -8 26 -3 37 5 11 7 22 7 27 -1 4 3 7 8 7 6 0 10 -17 10 -39z
m4940 -10 c0 -28 -4 -52 -9 -55 -12 -8 -41 39 -41 67 0 28 7 37 32 37 15 0 18
-8 18 -49z m-6200 25 c0 -2 -13 -6 -30 -8 -16 -3 -30 -1 -30 4 0 4 14 8 30 8
17 0 30 -2 30 -4z m-12 -91 l25 -22 -31 -11 c-38 -13 -41 -35 -7 -64 19 -16
22 -25 14 -39 -5 -11 -16 -19 -24 -19 -22 0 -18 -38 5 -50 26 -14 26 -40 -1
-47 -15 -4 -19 -12 -17 -32 2 -22 9 -27 37 -29 27 -3 39 2 53 20 l18 23 6 -22
c6 -21 13 -23 64 -23 74 0 90 -6 90 -36 0 -33 -40 -52 -75 -36 -14 6 -39 9
-56 5 -25 -5 -31 -2 -36 15 -8 31 -33 36 -64 13 -16 -12 -38 -21 -51 -21 -13
0 -54 -1 -93 -3 -60 -2 -70 0 -73 16 -3 16 3 17 70 11 l74 -6 0 58 c-1 92 14
335 21 347 3 5 10 2 16 -8 5 -10 21 -28 35 -40z m292 29 c0 -3 -5 -14 -10 -25
-11 -20 -49 -24 -85 -9 -17 7 -16 9 11 9 16 1 39 8 50 16 20 15 34 19 34 9z
m-2020 -19 c12 -14 11 -30 -5 -67 -4 -11 0 -18 15 -23 20 -6 21 -12 16 -49 -4
-22 -11 -42 -16 -44 -6 -2 -10 -11 -10 -19 0 -10 -6 -13 -16 -9 -8 3 -12 2 -9
-4 9 -15 -49 -12 -79 3 -14 8 -23 17 -19 20 3 4 1 7 -4 7 -17 0 -5 83 13 97
14 10 14 14 1 40 -23 44 -7 63 52 63 31 0 53 -5 61 -15z m1825 5 c3 -5 12 -7
19 -4 15 6 31 -12 19 -19 -5 -3 -25 -8 -46 -12 -32 -6 -37 -5 -37 12 0 11 3
23 7 26 9 10 31 8 38 -3z m-1638 -110 c2 -30 -1 -40 -12 -40 -11 0 -15 13 -15
52 0 41 3 49 12 40 7 -7 14 -30 15 -52z m1623 0 c0 -11 -7 -20 -15 -20 -17 0
-18 2 -9 24 9 23 24 20 24 -4z m-1700 -70 c0 -5 -4 -10 -10 -10 -5 0 -10 5
-10 10 0 6 5 10 10 10 6 0 10 -4 10 -10z m1698 -30 c-1 -34 -14 -48 -30 -32
-7 7 -4 18 7 36 22 33 24 33 23 -4z m6290 -8 c2 -22 -2 -34 -12 -38 -22 -8
-46 13 -46 41 0 28 9 37 35 33 15 -2 21 -12 23 -36z m-7990 -73 c-4 -28 -31
-32 -36 -6 -5 23 18 51 30 39 6 -6 8 -20 6 -33z m3582 -176 c0 -94 -4 -115
-44 -238 -49 -153 -61 -185 -70 -185 -4 0 -5 8 -1 18 3 9 10 38 15 64 5 26 17
64 26 85 9 21 18 45 19 53 2 8 8 40 15 70 6 30 13 84 15 120 1 36 3 73 4 83 0
9 6 17 11 17 6 0 10 -36 10 -87z m-3927 63 c8 -19 1 -24 -28 -18 -14 2 -25 11
-25 18 0 18 46 18 53 0z m7612 4 c4 -6 -7 -10 -24 -10 -17 0 -31 5 -31 10 0 6
11 10 24 10 14 0 28 -4 31 -10z m-4676 -116 c16 -11 34 -14 59 -10 45 7 60 -2
71 -41 22 -76 -71 -71 -100 5 -8 20 -12 22 -25 11 -12 -10 -12 -14 -2 -21 8
-5 1 -6 -17 -2 -16 4 -38 14 -48 23 -18 15 -18 16 3 33 27 22 30 22 59 2z
m-144 -75 c10 -14 1 -21 -19 -13 -9 3 -13 10 -10 15 7 12 21 11 29 -2z m3585
-43 c0 -3 -4 -8 -10 -11 -5 -3 -10 -1 -10 4 0 6 5 11 10 11 6 0 10 -2 10 -4z
m1180 -27 c0 -16 -31 -22 -43 -10 -9 9 -9 14 2 20 16 10 41 4 41 -10z m-4630
-19 c0 -5 -18 -10 -41 -10 -24 0 -38 4 -34 10 3 6 22 10 41 10 19 0 34 -4 34
-10z m274 -10 c4 -5 5 -14 1 -20 -5 -8 -25 -10 -67 -5 -67 8 -77 2 -78 -50 0
-16 -5 -37 -10 -45 -7 -11 -10 -3 -10 29 0 32 -6 51 -21 67 -12 12 -19 27 -16
31 7 11 188 4 201 -7z m-3409 -49 c15 -6 8 -9 -28 -12 -52 -5 -87 6 -46 14 37
7 52 6 74 -2z m155 -1 c0 -6 -29 -10 -67 -9 -50 1 -61 3 -43 9 36 12 110 12
110 0z m80 -2 c0 -4 -9 -8 -21 -8 -11 0 -18 4 -15 8 3 5 12 9 21 9 8 0 15 -4
15 -9z m-377 -15 c-7 -2 -21 -2 -30 0 -10 3 -4 5 12 5 17 0 24 -2 18 -5z
m6427 -33 c0 -11 -6 -20 -14 -20 -18 0 -29 16 -21 30 11 18 35 11 35 -10z m75
-1 c10 -15 -1 -23 -20 -15 -9 3 -13 10 -10 16 8 13 22 13 30 -1z m63 -1 c-6
-18 -28 -21 -28 -4 0 9 7 16 16 16 9 0 14 -5 12 -12z m110 -109 c-18 -12 -23
17 -6 38 12 15 13 14 16 -7 2 -12 -2 -27 -10 -31z m-3268 26 c0 -8 -7 -15 -15
-15 -16 0 -20 12 -8 23 11 12 23 8 23 -8z m4694 -21 c9 -3 16 -17 16 -30 0
-19 -5 -24 -25 -24 -27 0 -41 20 -31 45 6 16 16 18 40 9z m-5254 -19 c0 -8 -4
-15 -9 -15 -13 0 -22 16 -14 24 11 11 23 6 23 -9z m-2045 -115 c33 -4 51 -8
40 -10 -11 -1 -31 -4 -45 -6 -35 -5 -101 -12 -125 -14 -36 -1 6 -18 45 -17 55
1 112 -13 107 -26 -2 -7 -9 -13 -15 -13 -7 -1 -20 -2 -29 -4 -12 -1 -7 -6 14
-13 47 -18 49 -25 7 -33 -42 -8 -343 2 -369 13 -15 5 -14 8 6 19 13 7 27 10
30 8 4 -2 13 4 20 13 10 12 10 14 2 9 -7 -4 -13 -2 -13 3 0 6 -8 11 -17 11
-15 0 -16 2 -3 10 8 5 30 9 47 8 51 -2 49 9 -4 21 -99 24 -81 31 82 30 88 -1
187 -5 220 -9z m4603 -918 c2 -7 -5 -12 -15 -11 -12 0 -14 2 -4 6 11 5 11 7 0
15 -12 8 -12 9 0 6 8 -3 17 -10 19 -16z m414 -7 c3 -14 2 -25 -2 -25 -4 0 -10
11 -12 25 -3 14 -2 25 2 25 4 0 10 -11 12 -25z m-432 -25 c0 -5 -5 -10 -11
-10 -5 0 -7 5 -4 10 3 6 8 10 11 10 2 0 4 -4 4 -10z m-15 -40 c14 -27 14 -29
0 -23 -9 3 -14 8 -11 11 3 2 1 13 -5 23 -5 11 -7 19 -5 19 3 0 12 -13 21 -30z
m454 -28 c1 -7 -3 -10 -9 -7 -5 3 -10 21 -9 38 1 31 1 31 9 7 4 -14 8 -31 9
-38z m-404 28 c-28 -12 -37 -12 -30 0 3 6 16 10 28 9 21 0 21 -1 2 -9z"/>
<path d="M6074 6132 c-63 -30 -62 -40 3 -30 87 14 132 16 135 8 2 -5 23 -10
48 -12 25 -1 48 -7 52 -12 3 -5 27 -15 52 -21 39 -10 48 -10 59 3 8 11 8 14 0
9 -6 -4 -15 -2 -19 4 -4 8 -9 7 -16 -2 -7 -11 -8 -9 -6 6 2 11 -5 28 -16 39
-16 16 -37 20 -135 23 -99 3 -122 1 -157 -15z"/>
<path d="M6285 6010 c-16 -4 -50 -8 -75 -9 -52 -2 -145 -31 -145 -46 0 -5 11
-11 25 -12 14 -1 40 -3 58 -4 33 -2 57 -19 26 -19 -13 0 -14 -3 -4 -15 16 -19
106 -19 140 0 14 8 19 14 13 15 -22 0 -14 20 7 20 11 0 20 7 20 15 0 8 5 15
10 15 16 0 12 22 -7 36 -20 15 -25 15 -68 4z"/>
<path d="M6388 5413 c7 -3 16 -2 19 1 4 3 -2 6 -13 5 -11 0 -14 -3 -6 -6z"/>
<path d="M5202 6171 c-11 -7 -11 -9 0 -14 9 -3 15 1 15 9 0 8 -1 14 -1 14 -1
0 -7 -4 -14 -9z"/>
<path d="M4727 6164 c-8 -13 20 -41 30 -30 3 3 1 6 -5 6 -6 0 -12 8 -14 18 -2
11 -6 13 -11 6z"/>
<path d="M5375 6160 c-4 -7 -2 -16 6 -21 18 -11 23 -4 11 17 -7 12 -11 13 -17
4z"/>
<path d="M4561 6146 c-16 -20 -14 -22 22 -31 24 -6 27 -5 27 19 0 14 -5 26
-11 26 -5 0 -7 -4 -4 -10 3 -5 2 -10 -4 -10 -5 0 -11 5 -13 11 -2 7 -9 5 -17
-5z"/>
<path d="M5166 6145 c4 -8 8 -15 10 -15 2 0 4 7 4 15 0 8 -4 15 -10 15 -5 0
-7 -7 -4 -15z"/>
<path d="M5030 6129 c0 -5 5 -7 10 -4 6 3 10 8 10 11 0 2 -4 4 -10 4 -5 0 -10
-5 -10 -11z"/>
<path d="M4900 6100 c20 -13 33 -13 25 0 -3 6 -14 10 -23 10 -15 0 -15 -2 -2
-10z"/>
<path d="M4724 6093 c15 -4 16 -7 5 -14 -8 -5 -9 -9 -3 -9 6 0 16 6 22 13 8
10 5 13 -16 14 -17 0 -20 -1 -8 -4z"/>
<path d="M3850 6075 c0 -8 5 -15 10 -15 6 0 10 7 10 15 0 8 -4 15 -10 15 -5 0
-10 -7 -10 -15z"/>
<path d="M5228 6083 c-10 -2 -18 -9 -18 -14 0 -6 8 -5 20 1 11 6 20 13 20 15
0 3 -1 4 -2 4 -2 -1 -11 -3 -20 -6z"/>
<path d="M4525 6069 c-4 -6 -5 -12 -2 -15 2 -3 7 2 10 11 7 17 1 20 -8 4z"/>
<path d="M4550 6069 c0 -5 5 -7 10 -4 6 3 10 8 10 11 0 2 -4 4 -10 4 -5 0 -10
-5 -10 -11z"/>
<path d="M3866 6040 c-16 -17 -33 -30 -38 -30 -4 0 -8 -7 -8 -16 0 -12 6 -9
21 10 11 14 24 24 28 21 5 -2 13 7 19 20 14 31 13 31 -22 -5z"/>
<path d="M4100 6065 c0 -5 5 -17 10 -25 5 -8 10 -10 10 -5 0 6 -5 17 -10 25
-5 8 -10 11 -10 5z"/>
<path d="M4325 6061 c-3 -5 -2 -12 3 -15 5 -3 9 1 9 9 0 17 -3 19 -12 6z"/>
<path d="M4444 6063 c10 -10 46 -11 40 -1 -3 4 -15 8 -26 8 -12 0 -18 -3 -14
-7z"/>
<path d="M3300 6056 c0 -2 8 -10 18 -17 15 -13 16 -12 3 4 -13 16 -21 21 -21
13z"/>
<path d="M3795 6050 c-3 -5 1 -10 10 -10 9 0 13 5 10 10 -3 6 -8 10 -10 10 -2
0 -7 -4 -10 -10z"/>
<path d="M5065 6050 c3 -5 8 -10 11 -10 2 0 4 5 4 10 0 6 -5 10 -11 10 -5 0
-7 -4 -4 -10z"/>
<path d="M3180 6024 c14 -10 28 -23 32 -28 5 -7 8 -5 8 5 0 9 -8 19 -17 23
-10 3 -25 9 -33 12 -8 3 -4 -2 10 -12z"/>
<path d="M4010 6031 c0 -6 4 -13 10 -16 6 -3 7 1 4 9 -7 18 -14 21 -14 7z"/>
<path d="M2859 6022 c-1 -4 -1 -11 0 -15 1 -5 -8 -11 -19 -14 -24 -6 -27 -22
-4 -19 9 1 23 11 31 22 8 10 16 17 18 14 2 -3 6 -2 10 1 3 4 -3 9 -15 12 -11
3 -21 2 -21 -1z"/>
<path d="M3135 6020 c-8 -12 3 -50 14 -50 4 0 8 7 8 15 0 8 -5 11 -10 8 -6 -4
-8 3 -5 15 6 23 3 28 -7 12z"/>
<path d="M3560 6009 c0 -5 5 -7 10 -4 6 3 10 8 10 11 0 2 -4 4 -10 4 -5 0 -10
-5 -10 -11z"/>
<path d="M3740 6009 c0 -5 5 -7 10 -4 6 3 10 8 10 11 0 2 -4 4 -10 4 -5 0 -10
-5 -10 -11z"/>
<path d="M3930 6009 c-12 -8 -10 -9 9 -4 17 5 22 4 16 -5 -5 -9 -4 -11 4 -6 6
4 9 12 6 17 -8 12 -16 11 -35 -2z"/>
<path d="M2936 5997 c3 -10 9 -15 12 -12 3 3 0 11 -7 18 -10 9 -11 8 -5 -6z"/>
<path d="M3090 6000 c-8 -5 -10 -10 -5 -10 6 0 17 5 25 10 8 5 11 10 5 10 -5
0 -17 -5 -25 -10z"/>
<path d="M3514 5999 c-3 -6 -2 -15 3 -20 5 -5 9 -1 9 11 0 23 -2 24 -12 9z"/>
<path d="M3626 5998 c3 -5 10 -6 15 -3 13 9 11 12 -6 12 -8 0 -12 -4 -9 -9z"/>
<path d="M3868 6003 c6 -2 9 -10 6 -15 -4 -7 -2 -8 5 -4 13 9 5 26 -12 25 -9
0 -8 -2 1 -6z"/>
<path d="M1946 5988 c3 -5 10 -6 15 -3 13 9 11 12 -6 12 -8 0 -12 -4 -9 -9z"/>
<path d="M3995 5980 c3 -5 8 -10 11 -10 2 0 4 5 4 10 0 6 -5 10 -11 10 -5 0
-7 -4 -4 -10z"/>
<path d="M2187 5973 c-11 -10 -8 -43 3 -43 20 0 25 5 22 20 -5 20 -17 32 -25
23z"/>
<path d="M2988 5963 c-7 -9 -7 -13 1 -13 6 0 11 6 11 13 0 8 3 8 9 -2 5 -8 7
-21 4 -30 -3 -12 -2 -12 7 2 6 9 9 21 5 26 -3 5 1 11 7 14 7 3 3 4 -10 4 -13
-1 -28 -7 -34 -14z"/>
<path d="M3580 5966 c0 -2 7 -7 16 -10 8 -3 12 -2 9 4 -6 10 -25 14 -25 6z"/>
<path d="M5348 5958 c5 -5 16 -8 23 -6 8 3 3 7 -10 11 -17 4 -21 3 -13 -5z"/>
<path d="M1907 5937 c-17 -17 -17 -19 2 -43 l20 -26 7 26 c4 17 13 26 25 26
10 0 19 5 19 11 0 6 -7 9 -15 5 -10 -3 -15 1 -16 12 0 14 -2 14 -8 -3 -7 -16
-9 -17 -12 -5 -3 13 -7 13 -22 -3z"/>
<path d="M2636 5942 c5 -4 12 -11 15 -15 3 -5 9 -2 12 5 3 9 -3 14 -15 15 -11
1 -16 -1 -12 -5z"/>
<path d="M3050 5935 c-7 -9 -8 -15 -2 -15 5 0 12 7 16 15 3 8 4 15 2 15 -2 0
-9 -7 -16 -15z"/>
<path d="M2320 5925 c-7 -8 -9 -15 -4 -15 5 0 2 -5 -6 -10 -13 -8 -12 -10 3
-10 9 0 17 5 17 11 0 8 4 8 14 0 12 -10 13 -8 9 9 -7 28 -18 33 -33 15z"/>
<path d="M2580 5918 c-10 -21 -10 -21 3 -6 8 10 18 14 22 10 5 -4 5 -1 1 6
-10 17 -14 15 -26 -10z"/>
<path d="M2772 5936 c4 -5 3 -15 -3 -22 -7 -8 -7 -14 1 -19 6 -4 9 -1 8 7 -2
8 4 12 17 10 11 -2 18 -2 15 0 -27 20 -44 31 -38 24z"/>
<path d="M2838 5928 c9 -9 9 -15 -1 -27 -10 -14 -10 -14 4 -4 9 7 20 9 25 5 5
-4 0 3 -10 16 -11 12 -22 22 -25 22 -3 0 0 -5 7 -12z"/>
<path d="M2891 5926 c-10 -11 -9 -14 1 -12 14 2 23 15 15 22 -2 2 -10 -2 -16
-10z"/>
<path d="M1582 5917 c-6 -7 -7 -18 -3 -26 6 -9 11 -10 15 -2 4 6 5 15 2 20 -4
5 0 12 6 14 8 4 9 6 2 6 -6 1 -16 -5 -22 -12z"/>
<path d="M2376 5915 c-9 -26 -7 -32 5 -12 6 10 9 21 6 23 -2 3 -7 -2 -11 -11z"/>
<path d="M2735 5920 c-3 -5 -1 -10 4 -10 6 0 11 5 11 10 0 6 -2 10 -4 10 -3 0
-8 -4 -11 -10z"/>
<path d="M3120 5926 c0 -2 7 -7 16 -10 8 -3 12 -2 9 4 -6 10 -25 14 -25 6z"/>
<path d="M1856 5912 c-3 -5 1 -9 9 -9 8 0 15 4 15 9 0 4 -4 8 -9 8 -6 0 -12
-4 -15 -8z"/>
<path d="M1975 5910 c-3 -5 -3 -10 2 -10 4 0 1 -5 -7 -10 -12 -7 -11 -9 6 -8
11 1 21 10 21 20 2 19 -12 24 -22 8z"/>
<path d="M2180 5911 c0 -6 4 -12 10 -16 5 -3 8 -11 6 -18 -1 -7 -1 -9 1 -4 3
4 12 7 20 7 14 0 14 3 -2 20 -19 21 -35 26 -35 11z"/>
<path d="M1419 5905 c-5 -24 0 -50 9 -47 7 1 12 -6 12 -16 0 -12 8 -18 28 -19
15 -1 21 1 14 4 -17 7 -5 23 19 23 11 0 18 -4 15 -9 -4 -5 3 -7 14 -4 11 3 20
9 20 14 0 5 -7 6 -15 3 -8 -4 -15 -2 -15 3 0 5 -11 9 -24 9 -14 0 -23 -3 -20
-7 2 -4 -4 -10 -13 -13 -10 -4 -15 -4 -11 -1 3 4 -2 15 -13 26 -11 11 -17 24
-14 29 4 6 4 10 1 10 -3 0 -6 -2 -7 -5z"/>
<path d="M2400 5900 c-9 -6 -10 -10 -3 -10 6 0 15 5 18 10 8 12 4 12 -15 0z"/>
<path d="M5350 5906 c0 -2 7 -7 16 -10 8 -3 12 -2 9 4 -6 10 -25 14 -25 6z"/>
<path d="M1440 5884 c0 -8 5 -12 10 -9 6 4 8 11 5 16 -9 14 -15 11 -15 -7z"/>
<path d="M1889 5898 c-6 -27 -5 -39 4 -45 7 -3 9 -3 5 2 -4 4 -3 14 3 21 7 8
7 14 -1 19 -5 3 -10 5 -11 3z"/>
<path d="M2072 5864 c-7 -8 -8 -14 -3 -14 10 0 25 19 20 25 -2 1 -10 -3 -17
-11z"/>
<path d="M1320 5861 c0 -8 -7 -11 -17 -6 -15 5 -16 4 -5 -6 9 -10 15 -10 24
-1 6 6 9 15 5 19 -4 3 -7 1 -7 -6z"/>
<path d="M1750 5860 c-9 -6 -10 -10 -3 -10 6 0 15 5 18 10 8 12 4 12 -15 0z"/>
<path d="M1696 5852 c-2 -4 4 -9 15 -9 11 -1 17 2 14 8 -7 11 -22 12 -29 1z"/>
<path d="M2025 5850 c-3 -6 1 -7 9 -4 18 7 21 14 7 14 -6 0 -13 -4 -16 -10z"/>
<path d="M2260 5851 c0 -6 4 -13 10 -16 6 -3 7 1 4 9 -7 18 -14 21 -14 7z"/>
<path d="M1231 5844 c-1 -16 26 -37 39 -29 5 3 10 12 9 18 0 9 -2 9 -6 0 -2
-7 -9 -13 -14 -13 -6 0 -7 5 -3 12 4 6 3 8 -4 4 -5 -3 -13 0 -15 6 -4 8 -6 9
-6 2z"/>
<path d="M1580 5840 c12 -8 12 -10 1 -10 -8 0 -12 -2 -9 -5 3 -3 13 -2 22 1
14 5 15 9 4 15 -7 5 -17 9 -23 9 -5 0 -3 -5 5 -10z"/>
<path d="M1915 5840 c-3 -5 -1 -10 4 -10 6 0 11 5 11 10 0 6 -2 10 -4 10 -3 0
-8 -4 -11 -10z"/>
<path d="M1396 5824 c-5 -13 -4 -14 7 -6 8 7 18 8 22 4 5 -4 5 -1 1 6 -10 17
-23 15 -30 -4z"/>
<path d="M1633 5825 c0 -7 6 -11 14 -8 7 3 13 6 13 8 0 2 -6 5 -13 8 -8 3 -14
-1 -14 -8z"/>
<path d="M1985 5830 c-3 -6 1 -7 9 -4 18 7 21 14 7 14 -6 0 -13 -4 -16 -10z"/>
<path d="M1680 5826 c0 -2 7 -7 16 -10 8 -3 12 -2 9 4 -6 10 -25 14 -25 6z"/>
<path d="M5388 5823 c7 -3 16 -2 19 1 4 3 -2 6 -13 5 -11 0 -14 -3 -6 -6z"/>
<path d="M1210 5816 c0 -2 8 -10 18 -17 15 -13 16 -12 3 4 -13 16 -21 21 -21
13z"/>
<path d="M1535 5809 c-4 -6 -5 -12 -2 -15 2 -3 7 2 10 11 7 17 1 20 -8 4z"/>
<path d="M2215 5810 c-3 -5 -1 -10 4 -10 6 0 11 5 11 10 0 6 -2 10 -4 10 -3 0
-8 -4 -11 -10z"/>
<path d="M1446 5785 c-11 -16 -12 -23 -3 -20 16 7 40 45 28 45 -5 0 -16 -11
-25 -25z"/>
<path d="M1700 5796 c0 -2 7 -7 16 -10 8 -3 12 -2 9 4 -6 10 -25 14 -25 6z"/>
<path d="M1040 5784 c0 -3 7 -12 15 -21 13 -12 13 -18 3 -32 -11 -14 -11 -14
3 -3 19 14 14 62 -7 62 -8 0 -14 -3 -14 -6z"/>
<path d="M875 5759 c6 -30 15 -37 15 -11 0 11 -4 23 -9 27 -6 3 -8 -4 -6 -16z"/>
<path d="M1188 5749 c10 -14 17 -15 37 -5 13 6 20 13 14 14 -5 2 -15 -1 -23
-7 -9 -8 -16 -7 -26 2 -12 10 -12 9 -2 -4z"/>
<path d="M1390 5756 c0 -2 7 -7 16 -10 8 -3 12 -2 9 4 -6 10 -25 14 -25 6z"/>
<path d="M1515 5749 c-4 -6 -4 -13 -1 -16 3 -4 6 -1 6 5 0 6 8 13 18 15 15 4
15 5 0 6 -9 0 -20 -4 -23 -10z"/>
<path d="M1826 5752 c-3 -5 1 -9 9 -9 8 0 12 4 9 9 -3 4 -7 8 -9 8 -2 0 -6 -4
-9 -8z"/>
<path d="M903 5735 c0 -8 4 -12 9 -9 5 3 6 10 3 15 -9 13 -12 11 -12 -6z"/>
<path d="M966 5741 c-4 -5 3 -7 14 -4 23 6 26 13 6 13 -8 0 -17 -4 -20 -9z"/>
<path d="M577 5720 c-12 -12 -15 -20 -8 -25 6 -3 11 -1 11 5 0 6 5 8 10 5 6
-3 10 3 10 14 0 25 0 25 -23 1z"/>
<path d="M1179 5721 c6 -10 7 -22 3 -26 -4 -5 -1 -5 6 -1 9 5 9 12 2 27 -6 10
-13 19 -16 19 -2 0 0 -8 5 -19z"/>
<path d="M5423 5724 c-7 -7 -13 -19 -13 -26 0 -7 7 -2 16 10 18 26 16 37 -3
16z"/>
<path d="M646 5705 c-17 -13 -18 -17 -6 -28 7 -7 10 -7 7 -1 -4 7 0 17 8 24
14 12 20 7 15 -15 -1 -5 2 -7 6 -3 4 4 12 4 18 -2 8 -6 12 -3 13 11 1 14 -3
19 -13 15 -8 -3 -14 -1 -14 4 0 14 -12 12 -34 -5z"/>
<path d="M879 5712 c9 -7 10 -11 2 -15 -7 -4 -8 -5 0 -4 15 3 13 21 -3 25 -10
3 -10 2 1 -6z"/>
<path d="M945 5700 c-3 -6 1 -7 9 -4 18 7 21 14 7 14 -6 0 -13 -4 -16 -10z"/>
<path d="M853 5675 c0 -8 4 -12 9 -9 5 3 6 10 3 15 -9 13 -12 11 -12 -6z"/>
<path d="M5223 5293 c9 -2 23 -2 30 0 6 3 -1 5 -18 5 -16 0 -22 -2 -12 -5z"/>
<path d="M3366 4515 c10 -15 30 -27 51 -31 19 -4 37 -13 40 -20 9 -25 23 -15
23 16 0 25 -6 32 -36 45 -20 8 -49 15 -65 15 -29 0 -29 0 -13 -25z"/>
<path d="M6142 4480 c0 -19 2 -27 5 -17 2 9 2 25 0 35 -3 9 -5 1 -5 -18z"/>
<path d="M4250 4356 c-14 -8 -27 -25 -30 -38 -4 -16 -14 -24 -35 -26 -17 -2
-35 -8 -42 -14 -12 -10 -52 5 -64 24 -3 5 -19 8 -35 8 -16 -1 -72 -3 -126 -4
l-96 -1 0 -31 c0 -28 4 -33 42 -44 68 -21 96 -32 96 -40 0 -4 12 -10 28 -13
57 -12 120 -33 136 -46 13 -11 16 -11 16 0 0 8 6 5 14 -7 8 -11 34 -28 58 -38
24 -10 57 -24 73 -32 17 -7 53 -19 80 -25 28 -7 74 -20 104 -31 29 -10 67 -18
85 -16 17 1 41 -4 53 -10 12 -7 35 -12 51 -12 29 0 30 2 34 51 1 29 -2 59 -9
69 -6 9 -40 25 -75 35 -35 10 -69 23 -75 28 -8 6 -13 33 -13 67 l0 58 -47 27
c-31 17 -55 24 -71 20 -16 -4 -32 2 -53 20 -17 14 -34 25 -39 25 -5 0 -14 2
-22 5 -7 2 -24 -2 -38 -9z"/>
<path d="M2347 4323 c-13 -12 -7 -43 8 -43 8 0 15 4 15 9 0 5 3 16 6 25 6 16
-16 23 -29 9z"/>
<path d="M2390 4214 c0 -23 25 -50 33 -37 3 5 -3 20 -14 33 -18 24 -19 24 -19
4z"/>
<path d="M2640 4211 c0 -12 46 -20 60 -11 15 9 3 16 -32 18 -16 1 -28 -2 -28
-7z"/>
<path d="M3750 4167 c0 -2 9 -30 20 -63 10 -33 21 -75 23 -94 2 -19 9 -44 15
-55 6 -11 27 -55 46 -97 34 -75 50 -97 45 -60 -1 9 1 37 5 62 7 42 4 54 -39
139 -26 51 -53 110 -59 130 -9 24 -20 37 -34 39 -12 2 -22 2 -22 -1z"/>
<path d="M3870 4135 c0 -4 8 -20 17 -38 16 -30 18 -31 21 -9 2 13 -2 30 -8 38
-12 14 -30 19 -30 9z"/>
<path d="M2545 4120 c-8 -13 20 -24 41 -16 20 8 9 26 -16 26 -10 0 -22 -5 -25
-10z"/>
<path d="M2321 4111 c-19 -12 -5 -31 24 -31 13 0 27 5 31 11 7 11 -12 29 -31
29 -5 0 -16 -4 -24 -9z"/>
<path d="M2775 4110 c-7 -11 39 -25 54 -15 6 3 11 10 11 16 0 12 -57 12 -65
-1z"/>
<path d="M3684 3993 c6 -30 3 -43 -8 -53 -23 -18 -20 -40 5 -40 11 0 29 -4 39
-10 15 -8 19 -5 24 16 5 18 -1 39 -19 69 -35 61 -49 67 -41 18z"/>
<path d="M4350 3957 c0 -16 36 -86 56 -110 13 -16 24 -36 24 -44 0 -26 94
-193 108 -193 11 0 13 15 10 68 -4 60 -9 75 -57 152 -43 69 -51 88 -42 102 10
16 7 18 -21 16 -18 -1 -43 1 -55 6 -13 4 -23 5 -23 3z"/>
<path d="M2550 3940 c-9 -6 -10 -10 -3 -10 6 0 18 -3 27 -6 11 -4 16 -1 16 10
0 18 -17 21 -40 6z"/>
<path d="M4480 3939 c0 -17 62 -109 70 -104 7 4 2 84 -5 93 -7 9 -65 19 -65
11z"/>
<path d="M2750 3930 c20 -13 90 -13 90 0 0 6 -24 10 -52 10 -38 0 -49 -3 -38
-10z"/>
<path d="M4287 3873 c-3 -27 -6 -79 -6 -118 0 -38 -3 -100 -6 -137 -7 -68 -7
-68 18 -68 14 0 37 -4 51 -9 28 -11 42 0 48 39 4 35 19 31 33 -10 10 -29 17
-36 45 -38 18 -2 36 0 41 5 8 8 -65 143 -77 143 -3 0 -14 -10 -24 -22 -18 -23
-18 -23 -14 22 4 37 -2 59 -31 119 -19 40 -44 84 -54 97 l-19 24 -5 -47z"/>
<path d="M4589 3844 c-2 -100 -1 -102 20 -123 18 -18 19 -18 32 6 12 22 11 26
-4 34 -9 6 -17 18 -17 27 0 24 21 44 34 33 6 -5 27 -11 46 -13 30 -3 35 0 38
20 2 13 1 31 -3 40 -5 15 -9 14 -26 -8 -11 -14 -18 -20 -17 -15 5 25 -14 53
-40 57 -15 3 -35 9 -44 13 -16 6 -18 -1 -19 -71z"/>
<path d="M4830 3851 c0 -6 5 -13 10 -16 6 -3 10 1 10 9 0 9 -4 16 -10 16 -5 0
-10 -4 -10 -9z"/>
<path d="M3765 3803 c-24 -31 -22 -101 4 -120 9 -7 35 -13 59 -13 l43 0 -19
38 c-21 40 -37 77 -46 105 -8 24 -18 21 -41 -10z"/>
<path d="M5008 3803 c-21 -5 -21 -7 -10 -31 5 -9 19 -38 32 -64 12 -27 26 -48
31 -48 16 0 14 46 -4 88 -10 23 -15 47 -12 52 6 10 -6 11 -37 3z"/>
<path d="M3622 3758 c2 -17 8 -33 14 -35 6 -2 8 10 6 32 -5 44 -24 47 -20 3z"/>
<path d="M4906 3765 c-4 -10 -6 -68 -5 -129 0 -61 -2 -118 -5 -126 -11 -28 9
-41 55 -38 l44 3 -3 90 c-2 49 -7 92 -11 95 -5 3 -11 19 -15 35 -4 17 -17 43
-30 59 -20 26 -23 27 -30 11z"/>
<path d="M3342 3743 c2 -9 8 -18 15 -20 7 -3 9 3 6 16 -6 25 -26 28 -21 4z"/>
<path d="M4819 3758 c-2 -3 -5 -64 -9 -198 -3 -88 -18 -110 -75 -110 -24 0
-46 -4 -49 -9 -3 -5 -15 -7 -26 -4 -11 3 -20 2 -20 -2 0 -16 66 -114 77 -115
6 0 13 17 15 37 4 46 23 54 31 13 6 -28 49 -61 62 -48 3 3 8 66 11 139 2 74 6
171 9 217 4 67 2 82 -10 82 -8 0 -16 -1 -16 -2z m-29 -338 c0 -5 -4 -10 -10
-10 -5 0 -10 5 -10 10 0 6 5 10 10 10 6 0 10 -4 10 -10z"/>
<path d="M5378 3698 c-44 -55 -52 -68 -39 -68 6 0 11 5 11 11 0 6 16 31 36 55
20 24 34 44 31 44 -2 0 -20 -19 -39 -42z"/>
<path d="M4580 3615 c0 -22 4 -34 10 -30 6 3 10 17 10 30 0 13 -4 27 -10 30
-6 4 -10 -8 -10 -30z"/>
<path d="M5950 3600 c0 -11 7 -20 15 -20 8 0 15 9 15 20 0 11 -7 20 -15 20 -8
0 -15 -9 -15 -20z"/>
<path d="M3683 3598 c-6 -7 -13 -24 -16 -38 -5 -20 -1 -27 20 -37 14 -7 30
-10 35 -7 19 12 0 94 -22 94 -4 0 -12 -6 -17 -12z"/>
<path d="M2278 3582 c-21 -4 -24 -28 -4 -35 21 -8 56 3 56 18 0 14 -26 23 -52
17z"/>
<path d="M5110 3580 c0 -5 5 -10 10 -10 6 0 10 5 10 10 0 6 -4 10 -10 10 -5 0
-10 -4 -10 -10z"/>
<path d="M5240 3581 c0 -13 26 -32 33 -24 14 13 6 33 -13 33 -11 0 -20 -4 -20
-9z"/>
<path d="M3787 3554 c-4 -4 -7 -26 -7 -48 l1 -41 29 33 c30 33 38 52 21 52 -5
0 -16 2 -23 5 -8 3 -17 2 -21 -1z"/>
<path d="M4620 3545 c0 -9 6 -12 15 -9 8 4 12 10 9 15 -8 14 -24 10 -24 -6z"/>
<path d="M5045 3528 c-9 -22 4 -43 17 -30 7 7 7 16 0 29 -10 17 -11 17 -17 1z"/>
<path d="M5330 3510 c0 -5 7 -10 15 -10 8 0 15 5 15 10 0 6 -7 10 -15 10 -8 0
-15 -4 -15 -10z"/>
<path d="M2260 3480 c0 -5 14 -10 30 -10 17 0 30 5 30 10 0 6 -13 10 -30 10
-16 0 -30 -4 -30 -10z"/>
<path d="M5190 3450 c0 -6 7 -10 15 -10 8 0 15 2 15 4 0 2 -7 6 -15 10 -8 3
-15 1 -15 -4z"/>
<path d="M5262 3417 c26 -24 30 -33 25 -62 -4 -23 -1 -35 8 -39 8 -3 11 -13 8
-25 -3 -14 0 -21 8 -22 34 -3 81 0 87 5 3 3 -2 6 -12 6 -9 0 -15 4 -12 8 7 11
-23 54 -33 48 -13 -9 -19 69 -7 96 7 15 1 17 -48 15 l-55 -2 31 -28z"/>
<path d="M4570 3373 l0 -57 21 20 c19 20 20 23 5 58 -8 20 -17 36 -20 36 -4 0
-6 -26 -6 -57z"/>
<path d="M4898 3424 c-5 -4 -7 -44 -7 -88 1 -45 4 -71 6 -59 8 40 53 41 53 1
0 -18 4 -20 31 -14 35 7 56 28 65 66 3 14 10 36 15 49 7 16 7 27 0 34 -12 12
-153 22 -163 11z"/>
<path d="M3821 3399 c-34 -37 -28 -48 19 -35 33 8 40 14 38 31 -4 28 -32 30
-57 4z"/>
<path d="M2257 3404 c-12 -13 4 -24 34 -24 20 0 29 4 27 13 -5 13 -50 22 -61
11z"/>
<path d="M4809 3296 c-3 -3 -23 -7 -44 -10 -22 -2 -42 -5 -45 -5 -3 -1 2 -6
10 -11 20 -13 87 -13 96 1 6 11 -8 33 -17 25z"/>
<path d="M5082 3288 c-19 -19 -14 -30 11 -26 12 2 22 9 22 17 0 19 -18 24 -33
9z"/>
<path d="M5176 3284 c-9 -24 -9 -24 29 -24 39 0 46 14 16 30 -27 14 -38 13
-45 -6z"/>
<path d="M4566 3275 c-4 -12 3 -15 37 -14 28 1 33 3 17 6 -14 3 -30 9 -36 14
-8 6 -14 4 -18 -6z"/>
<path d="M5445 6140 c-3 -5 -1 -10 4 -10 6 0 11 5 11 10 0 6 -2 10 -4 10 -3 0
-8 -4 -11 -10z"/>
<path d="M2012 4221 c-10 -6 -8 -10 8 -14 26 -7 52 1 44 14 -7 11 -35 11 -52
0z"/>
<path d="M1800 3890 c0 -5 5 -10 11 -10 5 0 7 5 4 10 -3 6 -8 10 -11 10 -2 0
-4 -4 -4 -10z"/>
<path d="M2290 2859 c0 -5 5 -7 10 -4 6 3 10 8 10 11 0 2 -4 4 -10 4 -5 0 -10
-5 -10 -11z"/>
<path d="M9363 2825 c0 -44 2 -61 4 -37 2 23 2 59 0 80 -2 20 -4 1 -4 -43z"/>
<path d="M8841 2835 c-1 -33 -4 -103 -7 -156 -7 -97 -7 -97 20 -114 25 -17 27
-17 46 0 21 19 26 50 10 60 -6 4 -7 13 -1 24 7 13 5 20 -10 29 -27 17 -27 72
0 72 25 0 35 15 23 36 -7 12 -11 13 -17 5 -10 -17 -45 16 -46 43 0 12 -4 30
-9 41 -6 14 -9 3 -9 -40z"/>
<path d="M9862 2818 c-6 -7 -12 -37 -14 -67 -3 -57 12 -81 46 -68 12 5 16 20
16 65 0 69 -22 101 -48 70z"/>
<path d="M8550 2500 c19 -13 30 -13 30 0 0 6 -10 10 -22 10 -19 0 -20 -2 -8
-10z"/>
<path d="M8160 2585 c0 -8 7 -15 15 -15 8 0 15 7 15 15 0 8 -7 15 -15 15 -8 0
-15 -7 -15 -15z"/>
<path d="M8091 2496 c-12 -14 -5 -26 16 -26 15 0 18 26 4 34 -5 3 -14 0 -20
-8z"/>
<path d="M8162 2491 c2 -7 7 -12 11 -12 12 1 9 15 -3 20 -7 2 -11 -2 -8 -8z"/>
<path d="M8095 2390 c-3 -5 -1 -10 4 -10 6 0 11 5 11 10 0 6 -2 10 -4 10 -3 0
-8 -4 -11 -10z"/>
<path d="M8155 2390 c-3 -6 1 -13 10 -16 19 -8 30 0 20 15 -8 14 -22 14 -30 1z"/>
<path d="M8020 2290 c0 -5 5 -10 10 -10 6 0 10 5 10 10 0 6 -4 10 -10 10 -5 0
-10 -4 -10 -10z"/>
<path d="M8090 2290 c0 -5 5 -10 11 -10 5 0 7 5 4 10 -3 6 -8 10 -11 10 -2 0
-4 -4 -4 -10z"/>
<path d="M8077 2176 c-9 -23 19 -41 38 -26 12 10 13 16 4 26 -15 18 -35 18
-42 0z"/>
<path d="M8152 2178 c-8 -8 -9 -15 -1 -25 15 -17 25 -17 32 1 8 21 -16 39 -31
24z"/>
<path d="M5221 2876 c-10 -11 -8 -16 9 -21 24 -8 46 7 36 24 -10 15 -31 14
-45 -3z"/>
<path d="M5215 2751 c-9 -16 3 -31 26 -31 14 0 19 6 17 17 -4 20 -33 29 -43
14z"/>
<path d="M5245 2670 c3 -5 8 -10 11 -10 2 0 4 5 4 10 0 6 -5 10 -11 10 -5 0
-7 -4 -4 -10z"/>
<path d="M5285 2620 c-3 -5 -12 -7 -20 -3 -9 3 -15 -1 -15 -8 0 -10 12 -14 38
-13 54 2 56 2 42 19 -14 17 -36 20 -45 5z"/>
<path d="M5217 2493 c-14 -13 -6 -23 18 -23 28 0 34 15 9 24 -19 7 -19 7 -27
-1z"/>
<path d="M2523 1773 c9 -2 23 -2 30 0 6 3 -1 5 -18 5 -16 0 -22 -2 -12 -5z"/>
<path d="M8215 6040 c-3 -5 -1 -10 4 -10 6 0 11 5 11 10 0 6 -2 10 -4 10 -3 0
-8 -4 -11 -10z"/>
<path d="M7570 6010 c-11 -8 -8 -9 13 -4 17 4 27 2 27 -5 0 -6 8 -11 18 -11
15 1 15 2 -2 15 -23 18 -35 18 -56 5z"/>
<path d="M7660 6000 c0 -5 5 -10 10 -10 6 0 10 5 10 10 0 6 -4 10 -10 10 -5 0
-10 -4 -10 -10z"/>
<path d="M7334 5992 c4 -3 14 -7 22 -8 9 -1 13 0 10 4 -4 3 -14 7 -22 8 -9 1
-13 0 -10 -4z"/>
<path d="M7455 5990 c-3 -6 1 -7 9 -4 18 7 21 14 7 14 -6 0 -13 -4 -16 -10z"/>
<path d="M7785 5981 c-3 -5 -2 -12 3 -15 5 -3 9 1 9 9 0 17 -3 19 -12 6z"/>
<path d="M7826 5981 c-3 -4 1 -17 10 -27 14 -18 15 -18 5 2 -6 12 -7 24 -4 28
3 3 4 6 0 6 -3 0 -8 -4 -11 -9z"/>
<path d="M7889 5974 c14 -28 35 -44 46 -36 15 11 15 42 0 42 -8 0 -11 -8 -8
-22 4 -21 2 -20 -22 7 -17 19 -23 22 -16 9z"/>
<path d="M7514 5969 c-4 -7 -3 -9 4 -5 5 3 13 0 15 -6 4 -9 6 -10 6 -1 1 17
-16 25 -25 12z"/>
<path d="M7410 5964 c0 -2 9 -8 20 -14 15 -8 18 -8 14 3 -4 11 -34 21 -34 11z"/>
<path d="M7790 5940 c-12 -7 -10 -9 7 -7 12 0 19 5 17 9 -6 10 -6 10 -24 -2z"/>
<path d="M7629 5917 c6 -8 7 -18 3 -22 -4 -5 -1 -5 6 -1 10 6 10 11 1 22 -6 8
-14 14 -16 14 -3 0 0 -6 6 -13z"/>
<path d="M8094 5919 c-3 -6 -18 -8 -33 -5 -17 5 -21 4 -12 -2 11 -8 11 -11 0
-16 -8 -3 -3 -3 11 0 28 7 27 7 55 5 17 -1 18 -3 5 -11 -8 -5 -10 -10 -4 -10
6 0 17 7 24 16 8 8 9 14 4 13 -23 -4 -45 2 -39 11 3 6 4 10 1 10 -3 0 -8 -5
-12 -11z"/>
<path d="M8455 5910 c3 -16 0 -20 -11 -16 -9 3 -12 1 -9 -4 3 -6 18 -10 33
-10 25 0 25 1 6 15 -19 15 -19 15 1 8 21 -7 20 -5 -7 16 -15 11 -17 10 -13 -9z"/>
<path d="M9376 5921 c-4 -5 -2 -12 3 -15 5 -4 12 -2 15 3 4 5 2 12 -3 15 -5 4
-12 2 -15 -3z"/>
<path d="M7777 5903 c4 -11 8 -11 22 -1 9 7 17 13 19 14 2 1 -8 2 -22 2 -17 0
-23 -5 -19 -15z"/>
<path d="M8255 5913 c11 -3 24 -9 30 -14 5 -5 14 -9 20 -9 5 0 1 7 -9 15 -11
8 -29 14 -40 14 -20 -1 -21 -1 -1 -6z"/>
<path d="M8663 5901 c0 -11 5 -18 9 -15 4 3 5 11 1 19 -7 21 -12 19 -10 -4z"/>
<path d="M8358 5903 c6 -2 18 -2 25 0 6 3 1 5 -13 5 -14 0 -19 -2 -12 -5z"/>
<path d="M9027 5903 c-4 -3 -7 -11 -7 -17 0 -6 5 -5 12 2 6 6 9 14 7 17 -3 3
-9 2 -12 -2z"/>
<path d="M8973 5885 c0 -8 9 -22 19 -32 17 -16 17 -15 2 15 -17 36 -21 38 -21
17z"/>
<path d="M8078 5883 c7 -3 16 -2 19 1 4 3 -2 6 -13 5 -11 0 -14 -3 -6 -6z"/>
<path d="M8930 5880 c0 -5 5 -10 10 -10 6 0 10 5 10 10 0 6 -4 10 -10 10 -5 0
-10 -4 -10 -10z"/>
<path d="M8270 5870 c-9 -6 -10 -10 -3 -10 6 0 15 5 18 10 8 12 4 12 -15 0z"/>
<path d="M8320 5876 c0 -2 7 -7 16 -10 8 -3 12 -2 9 4 -6 10 -25 14 -25 6z"/>
<path d="M8739 5863 c-13 -16 -12 -17 4 -4 9 7 17 15 17 17 0 8 -8 3 -21 -13z"/>
<path d="M8648 5863 c9 -3 10 -9 3 -17 -8 -9 -7 -13 2 -13 7 0 14 9 14 19 1
11 -5 18 -15 17 -11 0 -13 -2 -4 -6z"/>
<path d="M9113 5858 c3 -9 1 -19 -6 -21 -7 -2 4 -4 24 -4 22 1 36 6 36 14 0
10 -3 10 -15 1 -11 -10 -17 -8 -29 7 -12 15 -14 16 -10 3z"/>
<path d="M9770 5858 c0 -9 5 -20 10 -23 13 -8 13 5 0 25 -8 13 -10 13 -10 -2z"/>
<path d="M8759 5858 c-7 -23 -4 -35 7 -35 9 0 11 4 4 12 -5 7 -7 15 -3 18 3 4
3 7 0 7 -4 0 -7 -1 -8 -2z"/>
<path d="M9045 5850 c-8 -13 9 -20 24 -11 10 6 9 10 -3 14 -8 3 -18 2 -21 -3z"/>
<path d="M9911 5857 c2 -1 11 -8 21 -15 12 -10 18 -10 24 -1 4 7 3 9 -4 5 -6
-3 -13 -2 -17 4 -3 5 -11 10 -17 10 -6 0 -9 -1 -7 -3z"/>
<path d="M9895 5830 c-3 -5 0 -7 8 -4 13 5 31 -27 28 -49 -1 -5 3 -6 8 -3 6 4
3 18 -6 36 -15 31 -27 37 -38 20z"/>
<path d="M9374 5819 c-3 -5 6 -9 20 -9 31 0 34 6 6 13 -11 3 -23 1 -26 -4z"/>
<path d="M9726 5815 c-3 -9 0 -15 9 -15 9 0 12 6 9 15 -4 8 -7 15 -9 15 -2 0
-5 -7 -9 -15z"/>
<path d="M9966 5821 c-4 -5 -2 -12 3 -15 5 -4 12 -2 15 3 4 5 2 12 -3 15 -5 4
-12 2 -15 -3z"/>
<path d="M9265 5810 c-3 -5 -1 -10 4 -10 6 0 11 5 11 10 0 6 -2 10 -4 10 -3 0
-8 -4 -11 -10z"/>
<path d="M9792 5776 c1 -14 6 -22 10 -20 4 3 4 12 1 21 -5 12 -3 14 7 8 9 -5
11 -4 6 3 -12 20 -26 13 -24 -12z"/>
<path d="M9991 5784 c0 -11 3 -14 6 -6 3 7 2 16 -1 19 -3 4 -6 -2 -5 -13z"/>
<path d="M9640 5761 c0 -6 4 -12 8 -15 5 -3 9 1 9 9 0 8 -4 15 -9 15 -4 0 -8
-4 -8 -9z"/>
<path d="M10035 5751 c-3 -5 -2 -12 3 -15 5 -3 9 1 9 9 0 17 -3 19 -12 6z"/>
<path d="M10594 5743 c2 -10 -6 -25 -17 -34 -16 -13 -17 -16 -4 -16 9 0 14 4
11 8 -9 15 21 15 34 0 10 -13 12 -14 10 -1 -2 8 -10 20 -18 27 -13 11 -13 12
1 13 8 0 20 -5 27 -12 9 -9 12 -9 12 0 0 7 -12 17 -26 22 -33 13 -33 13 -30
-7z"/>
<path d="M10378 5733 c7 -3 16 -2 19 1 4 3 -2 6 -13 5 -11 0 -14 -3 -6 -6z"/>
<path d="M10670 5680 c0 -5 4 -10 9 -10 5 0 16 -3 25 -6 9 -3 16 -1 16 6 0 6
-4 9 -9 5 -5 -3 -12 -1 -16 5 -8 13 -25 13 -25 0z"/>
<path d="M10824 5672 c-10 -16 -8 -18 17 -20 28 -2 29 -2 12 18 -10 11 -18 20
-18 20 0 0 -5 -8 -11 -18z"/>
<path d="M10615 5670 c-3 -6 1 -7 9 -4 18 7 21 14 7 14 -6 0 -13 -4 -16 -10z"/>
<path d="M10790 5647 c0 -10 8 -17 18 -17 9 0 13 4 7 8 -5 4 -13 11 -17 16 -5
5 -8 2 -8 -7z"/>
<path d="M10706 5633 c-6 -14 -5 -15 5 -6 7 7 10 15 7 18 -3 3 -9 -2 -12 -12z"/>
<path d="M7400 5441 c0 -6 4 -13 10 -16 6 -3 7 1 4 9 -7 18 -14 21 -14 7z"/>
<path d="M101 4702 c-19 -35 7 -54 69 -50 54 3 55 4 55 33 0 29 -1 30 -57 33
-47 2 -58 0 -67 -16z"/>
<path d="M145 4460 c-3 -5 1 -10 10 -10 9 0 13 5 10 10 -3 6 -8 10 -10 10 -2
0 -7 -4 -10 -10z"/>
<path d="M9514 4357 c-11 -12 -24 -34 -28 -49 -4 -18 -15 -30 -31 -34 -14 -3
-26 -14 -26 -23 -1 -9 -3 -23 -4 -31 -1 -8 -3 -21 -4 -27 0 -7 -10 -13 -20
-13 -25 0 -33 -14 -36 -56 -2 -31 5 -39 28 -35 4 1 10 -12 13 -28 4 -16 17
-40 30 -52 22 -20 28 -22 57 -11 37 13 103 10 119 -6 8 -8 7 -12 -3 -15 -8 -2
-30 -9 -48 -15 -28 -10 -39 -9 -58 3 -27 18 -55 19 -71 3 -21 -21 -13 -28 28
-22 26 4 53 1 79 -9 21 -9 41 -13 44 -10 3 3 3 -4 1 -15 -4 -14 0 -21 16 -25
31 -8 49 1 43 23 -4 14 1 19 24 22 15 2 27 8 26 13 -2 6 -6 10 -10 10 -5 0
-14 4 -21 9 -11 6 -8 11 10 21 27 14 48 2 48 -26 0 -19 36 -34 73 -31 9 0 15
-3 12 -8 -5 -8 -74 -24 -110 -25 -11 0 -20 -6 -19 -12 2 -29 4 -34 13 -28 6 3
36 1 68 -4 52 -8 60 -7 80 11 28 26 67 21 71 -9 3 -17 -4 -26 -25 -34 -16 -7
-23 -13 -15 -16 19 -7 45 -62 51 -108 5 -33 10 -41 30 -43 13 -2 27 2 31 8 4
7 5 52 2 101 -3 62 -1 97 8 113 19 36 9 61 -25 64 -17 2 -34 8 -39 13 -6 5
-26 9 -45 9 -20 0 -43 5 -51 10 -13 8 -13 10 2 10 19 0 42 35 33 50 -3 6 -13
10 -21 10 -9 0 -14 11 -14 31 0 21 -6 32 -18 36 -14 3 -17 12 -14 33 4 28 3
29 -44 32 l-49 3 3 44 c5 50 -7 63 -49 51 -36 -11 -41 -2 -33 50 8 49 -2 60
-56 60 -23 0 -42 -8 -56 -23z m43 -319 c-1 -12 -9 -18 -24 -18 -20 0 -22 3
-14 18 6 10 17 19 25 19 8 0 14 -9 13 -19z m333 -139 c0 -5 -4 -9 -10 -9 -5 0
-10 7 -10 16 0 8 5 12 10 9 6 -3 10 -10 10 -16z"/>
<path d="M103 4340 c-13 -5 -23 -14 -23 -20 0 -14 43 -30 79 -30 31 0 60 25
45 40 -15 14 -77 20 -101 10z"/>
<path d="M110 4223 c-53 -10 -43 -48 15 -59 18 -3 42 -1 54 5 23 13 29 51 9
51 -7 0 -22 2 -33 4 -11 2 -31 2 -45 -1z"/>
<path d="M10322 4178 c-7 -7 -12 -27 -12 -45 0 -34 -8 -39 -75 -45 -28 -3 -30
-6 -35 -53 -4 -27 -6 -120 -5 -205 l0 -155 75 3 c41 2 95 8 120 14 25 5 70 11
100 12 90 3 214 18 225 26 6 5 33 8 62 7 29 -1 56 3 62 8 8 8 15 181 12 287
-1 24 -36 41 -96 48 l-50 5 -6 43 c-3 24 -11 47 -18 51 -22 14 -345 13 -359
-1z"/>
<path d="M70 3965 c-20 -25 9 -48 60 -48 46 0 64 12 58 39 -5 26 -98 33 -118
9z"/>
<path d="M8904 3956 c-8 -22 2 -363 11 -388 10 -24 22 -22 31 5 11 32 11 37
-3 86 -7 25 -13 97 -13 165 0 119 -11 172 -26 132z"/>
<path d="M9365 3910 c-47 -5 -52 -9 -46 -39 0 -4 24 -11 53 -14 40 -5 56 -3
70 10 33 30 -4 51 -77 43z"/>
<path d="M82 3841 c-18 -11 24 -19 58 -11 22 5 23 7 7 13 -25 9 -49 9 -65 -2z"/>
<path d="M9530 3826 c0 -11 9 -16 30 -16 25 0 30 -4 30 -25 0 -44 27 -29 36
20 4 23 1 25 -30 25 -19 0 -41 3 -50 6 -11 4 -16 1 -16 -10z"/>
<path d="M9830 3821 c0 -14 -7 -32 -15 -41 -14 -16 -14 -18 4 -23 16 -4 21 1
26 24 4 15 2 36 -4 46 -9 16 -10 15 -11 -6z"/>
<path d="M9743 3763 c9 -2 23 -2 30 0 6 3 -1 5 -18 5 -16 0 -22 -2 -12 -5z"/>
<path d="M85 3730 c-21 -4 -31 -12 -33 -28 -2 -13 2 -22 10 -23 7 0 25 -3 39
-5 38 -6 81 12 77 33 -4 20 -49 31 -93 23z"/>
<path d="M9407 3710 c-9 -11 -24 -20 -33 -20 -14 0 -14 -2 0 -15 18 -18 46
-20 47 -2 0 6 2 22 5 35 5 27 3 27 -19 2z"/>
<path d="M9320 3700 c0 -5 5 -10 11 -10 5 0 7 5 4 10 -3 6 -8 10 -11 10 -2 0
-4 -4 -4 -10z"/>
<path d="M9600 3680 c-15 -10 -15 -10 25 -10 3 0 5 3 6 7 1 12 -15 13 -31 3z"/>
<path d="M10776 3663 c-3 -10 -8 -84 -11 -165 -5 -111 -3 -151 7 -167 11 -17
11 -25 0 -42 -7 -12 -12 -22 -10 -24 4 -3 125 -9 151 -6 15 1 17 13 17 92 l0
91 -22 -14 c-47 -29 -97 0 -71 41 14 23 7 140 -10 184 -13 30 -43 36 -51 10z"/>
<path d="M10909 3648 c-1 -7 -1 -47 1 -88 3 -113 20 -111 20 3 0 58 -4 97 -10
97 -5 0 -11 -6 -11 -12z"/>
<path d="M10504 3618 c-19 -9 -22 -21 -27 -96 -3 -48 -3 -89 0 -92 2 -3 17 9
31 26 112 131 132 156 132 165 0 12 -109 10 -136 -3z"/>
<path d="M10645 3569 c-72 -87 -75 -93 -36 -86 18 4 40 2 50 -5 27 -17 51 -3
51 30 0 15 -5 33 -10 38 -8 8 -8 19 0 38 25 65 7 61 -55 -15z"/>
<path d="M9316 3611 c-4 -7 -5 -15 -2 -18 9 -9 19 4 14 18 -4 11 -6 11 -12 0z"/>
<path d="M10233 3593 c-10 -15 -23 -33 -29 -40 -17 -18 -19 -263 -2 -263 9 0
9 -3 -2 -10 -22 -14 142 -13 173 1 25 11 40 48 52 120 6 38 -10 62 -37 58 -29
-4 -58 2 -58 10 0 6 21 11 48 13 l47 3 3 62 3 62 -80 0 c-45 0 -85 2 -91 6 -5
3 -17 -7 -27 -22z"/>
<path d="M8310 3552 c0 -28 32 -58 50 -47 6 4 10 22 10 41 0 31 -2 34 -30 34
-26 0 -30 -4 -30 -28z"/>
<path d="M9927 3500 c-4 -32 -4 -66 -1 -75 6 -14 9 -14 26 2 11 10 26 32 33
51 18 41 3 82 -30 82 -20 0 -23 -7 -28 -60z"/>
<path d="M9790 3525 c0 -8 5 -15 10 -15 6 0 10 7 10 15 0 8 -4 15 -10 15 -5 0
-10 -7 -10 -15z"/>
<path d="M9711 3503 c1 -18 3 -21 6 -10 2 9 9 15 14 12 5 -4 9 1 9 9 0 9 -7
16 -15 16 -10 0 -15 -9 -14 -27z"/>
<path d="M9437 3503 c-12 -11 -8 -81 5 -89 12 -8 48 30 48 51 0 15 -27 45 -39
45 -4 0 -11 -3 -14 -7z"/>
<path d="M41 3476 c-20 -23 -2 -45 44 -52 58 -8 85 1 85 31 0 12 -7 26 -16 29
-29 11 -101 6 -113 -8z"/>
<path d="M9670 3456 c0 -26 2 -32 34 -95 18 -37 11 -51 -26 -51 -10 0 -18 -6
-18 -13 0 -9 20 -13 66 -15 47 -1 64 2 62 10 -3 7 -15 15 -28 18 -27 6 -38 37
-38 106 0 52 1 49 -29 58 -20 6 -23 4 -23 -18z"/>
<path d="M9312 3457 c-10 -11 -9 -17 2 -26 20 -17 58 -4 54 17 -4 22 -41 27
-56 9z"/>
<path d="M9000 3446 c0 -8 5 -18 10 -21 6 -3 10 3 10 14 0 12 -4 21 -10 21 -5
0 -10 -6 -10 -14z"/>
<path d="M10531 3430 c-52 -53 -44 -60 69 -60 99 0 100 0 106 27 12 45 -36 66
-92 41 -22 -10 -28 -10 -39 5 -12 16 -15 15 -44 -13z"/>
<path d="M9226 3442 c-8 -14 3 -62 15 -62 11 0 11 41 0 59 -6 9 -11 10 -15 3z"/>
<path d="M9555 3440 c-3 -5 1 -10 9 -10 8 0 18 5 21 10 3 6 -1 10 -9 10 -8 0
-18 -4 -21 -10z"/>
<path d="M8420 3431 c0 -5 9 -11 20 -14 11 -3 20 -12 20 -20 0 -8 7 -17 15
-21 23 -9 19 41 -4 54 -24 12 -51 13 -51 1z"/>
<path d="M9963 3375 c-3 -9 -3 -18 0 -21 9 -9 27 6 27 22 0 19 -19 18 -27 -1z"/>
<path d="M9581 3366 c-11 -13 -11 -20 -3 -28 15 -15 24 -5 20 23 -3 21 -4 21
-17 5z"/>
<path d="M65 3361 c-21 -4 -31 -13 -33 -27 -2 -17 4 -23 31 -28 18 -3 47 -3
65 0 30 6 50 31 35 44 -13 12 -66 17 -98 11z"/>
<path d="M9486 3361 c-4 -7 -5 -15 -2 -18 9 -9 19 4 14 18 -4 11 -6 11 -12 0z"/>
<path d="M8335 3318 l-13 -33 51 -6 c29 -3 53 -5 55 -3 6 4 -60 74 -70 74 -5
0 -15 -15 -23 -32z"/>
<path d="M9295 3310 l-40 -20 55 3 c41 1 55 6 55 17 0 22 -25 22 -70 0z"/>
<path d="M10510 3311 c0 -39 26 -51 111 -51 72 0 79 2 79 20 0 16 -7 20 -37
20 -21 1 -56 7 -78 15 -55 20 -75 19 -75 -4z"/>
<path d="M9001 3312 c-6 -2 -11 -7 -11 -11 0 -12 78 -12 85 -1 3 6 3 10 -2 11
-38 4 -63 4 -72 1z"/>
<path d="M8763 3293 c9 -2 23 -2 30 0 6 3 -1 5 -18 5 -16 0 -22 -2 -12 -5z"/>
<path d="M9198 3293 c7 -3 16 -2 19 1 4 3 -2 6 -13 5 -11 0 -14 -3 -6 -6z"/>
<path d="M9960 3291 c0 -14 26 -20 95 -21 84 -2 90 -1 80 9 -15 13 -175 25
-175 12z"/>
<path d="M27 3225 c-10 -26 3 -42 38 -48 53 -9 90 5 90 34 0 22 -4 24 -61 27
-48 2 -63 0 -67 -13z"/>
<path d="M24 3105 c-14 -35 3 -46 63 -43 50 3 58 6 61 24 3 24 -19 34 -81 34
-24 0 -40 -5 -43 -15z"/>
<path d="M23 2984 c-14 -10 -16 -17 -7 -31 16 -25 112 -26 128 -1 7 12 7 21 1
27 -17 17 -103 20 -122 5z"/>
<path d="M16 2853 c-3 -4 -6 -15 -6 -25 0 -15 8 -18 55 -18 41 0 57 4 62 15 3
9 4 17 2 19 -8 7 -107 14 -113 9z"/>
<path d="M6451 1822 c-14 -5 -14 -33 0 -69 l11 -28 10 27 c5 15 17 30 27 33
10 3 26 14 35 24 16 18 15 18 -28 17 -25 0 -50 -2 -55 -4z"/>
<path d="M6408 1532 c-35 -21 -35 -28 0 -38 52 -14 80 2 63 35 -14 25 -26 25
-63 3z"/>
<path d="M6446 1283 c-4 -16 -9 -37 -12 -48 -4 -15 -3 -16 4 -6 6 8 15 10 22
6 10 -6 12 -2 7 14 -5 19 -2 22 13 18 18 -5 18 -3 3 19 -20 31 -29 30 -37 -3z"/>
<path d="M6413 1183 c-21 -49 -25 -81 -13 -100 10 -15 11 -13 6 14 -4 25 -2
31 8 27 18 -7 28 24 18 59 l-7 27 -12 -27z"/>
<path d="M7250 1136 c0 -2 8 -10 18 -17 15 -13 16 -12 3 4 -13 16 -21 21 -21
13z"/>
<path d="M7260 1090 c0 -5 5 -10 11 -10 5 0 7 5 4 10 -3 6 -8 10 -11 10 -2 0
-4 -4 -4 -10z"/>
<path d="M7367 941 c-3 -14 1 -18 19 -18 13 0 24 4 24 9 0 5 -4 7 -9 3 -5 -3
-12 -1 -15 4 -4 5 2 12 11 14 14 4 14 5 -3 6 -13 1 -24 -6 -27 -18z"/>
<path d="M7752 459 c60 -152 157 -319 184 -319 34 0 112 -54 139 -98 l28 -44
86 6 c47 4 129 9 181 12 117 6 131 9 158 32 16 15 45 21 119 26 121 8 143 13
143 36 0 15 12 19 63 24 128 13 157 18 157 26 0 11 -22 18 -101 29 -36 5 -109
25 -162 45 -53 20 -103 36 -111 36 -23 0 -66 22 -60 31 4 7 -20 16 -101 35
-30 8 -12 10 214 30 48 4 69 9 60 14 -36 20 -426 67 -624 74 -82 4 -201 9
-264 12 -94 5 -113 4 -109 -7z"/>
<path d="M3847 95 c-72 -27 -182 -90 -163 -93 10 -2 23 1 29 7 6 6 22 11 35
11 28 0 51 11 109 56 49 37 47 40 -10 19z"/>
<path d="M4730 50 c-8 -5 -62 -7 -120 -4 -80 4 -116 1 -149 -10 -24 -9 -69
-17 -100 -18 -133 -3 124 -16 349 -17 l235 -1 -30 24 c-21 17 -32 21 -37 13
-5 -9 -20 -7 -56 6 -56 19 -71 21 -92 7z"/>
<path d="M7243 30 l-11 -30 59 0 c32 0 59 3 58 8 0 4 -13 17 -30 30 -28 22
-29 23 -29 4 0 -11 -7 -23 -16 -26 -24 -9 -25 -8 -18 19 9 34 1 31 -13 -5z"/>
<path d="M5141 20 l-23 -20 143 1 c79 1 133 3 119 5 -14 2 -59 9 -100 15 -41
6 -84 12 -95 15 -11 2 -31 -5 -44 -16z"/>
<path d="M7930 20 c0 -12 28 -25 36 -17 3 3 -4 10 -15 17 -15 7 -21 7 -21 0z"/>
<path d="M5570 8 c0 -5 55 -8 122 -8 67 0 119 2 117 5 -8 8 -239 10 -239 3z"/>
<path d="M6975 10 c-37 -7 -35 -7 22 -9 34 0 65 3 68 9 7 11 -28 11 -90 0z"/>
<path d="M5453 3 c15 -2 37 -2 50 0 12 2 0 4 -28 4 -27 0 -38 -2 -22 -4z"/>
<path d="M5538 3 c7 -3 16 -2 19 1 4 3 -2 6 -13 5 -11 0 -14 -3 -6 -6z"/>
</g>
</svg>
